<?xml version="1.0" encoding="UTF-8" standalone="no"?><svg xmlns="http://www.w3.org/2000/svg" xmlns:xlink="http://www.w3.org/1999/xlink"><symbol id="arrow" xmlns="http://www.w3.org/2000/svg" viewBox="0 0 477.175 477.175" xml:space="preserve"><path d="M145.188,238.575l215.5-215.5c5.3-5.3,5.3-13.8,0-19.1s-13.8-5.3-19.1,0l-225.1,225.1c-5.3,5.3-5.3,13.8,0,19.1l225.1,225
		c2.6,2.6,6.1,4,9.5,4s6.9-1.3,9.5-4c5.3-5.3,5.3-13.8,0-19.1L145.188,238.575z"></path></symbol><symbol id="1c_bitrix" xmlns="http://www.w3.org/2000/svg" width="100%" height="100%" viewBox="0 0 200 200"><g transform="translate(-76.221179,-152.76972)"><path d="M 157.27568,352.79568 C 139.70521,349.15722 123.3099,341.04088 110.43882,329.60954 77.395638,300.26251 67.183499,254.1601 84.639486,213.13914 88.926214,203.06548 95.895291,192.84219 104.53018,183.96048 l 7.61267,-7.83027 0.53693,45.83027 c 0.51393,43.86776 0.62975,46.07758 2.70484,51.60557 4.15136,11.05915 8.6019,18.10034 16.26354,25.73051 19.79124,19.70997 48.82118,24.629 73.49912,12.45419 23.1956,-11.4435 37.81893,-36.32611 36.1196,-61.46 -1.14146,-16.88261 -6.81905,-29.26246 -19.07714,-41.59721 -9.26896,-9.32693 -20.17418,-15.41929 -32.04688,-17.90344 -12.07962,-2.52744 -11.5,-2.89677 -11.5,7.3278 l 0,8.82715 6.62234,1.22021 c 25.64682,4.72561 42.60888,29.91001 37.26307,55.32627 -1.70737,8.1176 -5.51565,15.28583 -11.62893,21.88891 -9.2904,10.03474 -22.36114,14.83118 -33.77414,14.80915 -18.87159,-0.0364 -34.6297,-10.76021 -42.26723,-26.61851 0,0 -2.00072,-4.53281 -2.64368,-7.3339 -3.78112,-16.47262 -1.36425,-51.14861 -1.36425,-51.14861 l -0.29281,-50.70218 2.99315,-1.54782 c 1.64624,-0.8513 3.22509,-1.54782 3.50856,-1.54782 0.28348,0 0.64332,23.2875 0.79966,51.75 0,0 -3.63474,37.31048 0.85696,51.60841 0.64807,2.06292 1.87838,5.59129 1.87838,5.59129 3.93751,8.02193 10.24821,15.07824 18.44782,18.96221 6.22431,2.94831 9.35814,4.28257 18.56665,4.28257 6.0165,0 11.34645,-1.89912 17.47943,-4.71979 7.22973,-3.32509 15.52319,-12.14094 18.58795,-20.19011 8.44391,-22.17682 -3.31362,-46.03621 -25.96443,-52.68923 -9.25719,-2.71904 -9.0685,-2.86879 -9.0685,7.19725 l 0,8.79259 4.44367,1.1885 c 16.01729,4.28397 20.90468,25.75294 8.33065,36.78433 -4.44255,3.89751 -8.44566,5.62034 -15.4483,5.62034 -7.48261,0 -14.66512,-4.52898 -18.35759,-11.47551 -2.21805,-4.17274 -2.4053,-8.13076 -2.4053,-9.94354 0,-16.74472 -0.36271,-46.85969 -0.36271,-46.85969 l -0.29958,-51.65792 2.29958,-0.57115 c 1.26477,-0.31414 6.37663,-1.09143 11.3597,-1.72733 16.89981,-2.15661 41.90208,3.374 58.69901,12.98447 22.90004,13.1024 40.22757,35.61042 47.4421,61.6261 2.48162,8.94876 2.75823,11.55076 2.75823,25.94621 0,14.33118 -0.28286,17.01927 -2.71196,25.77235 -9.81247,35.35858 -34.77307,60.63503 -70.46342,71.35506 -7.51128,2.25611 -11.03,2.68631 -24.28408,2.96899 -10.69597,0.22812 -17.6284,-0.11017 -22.36718,-1.09147 z"></path></g></symbol><symbol id="angular" version="1.1" xmlns="http://www.w3.org/2000/svg" viewBox="0 0 1000 1000"><g><path d="M500,80l411.2,151.2l-85.7,504L499.8,910L174.3,734.9L88.8,231.2L500,80 M500,10L10,185l100.9,595L500,990l388.8-210L990,185L500,10L500,10z"></path><path d="M692.5,710H780L500,97.5L220,710h87.5l58.2-122.5h268.7L692.5,710z M407.2,500L500,304.5L592.8,500H407.2z"></path></g></symbol><symbol id="boostrap" baseProfile="tiny" xmlns="http://www.w3.org/2000/svg" viewBox="71 71 370 370" xml:space="preserve"><path d="M172.568,152.681h103.618c19.111,0,34.461,4.36,45.986,13.139c11.525,8.779,17.319,21.978,17.319,39.715
			c0,10.75-2.628,19.947-7.884,27.592c-5.256,7.644-12.78,13.617-22.574,17.797v0.597c13.139,2.807,23.113,9.018,29.861,18.633
			c6.748,9.675,10.152,21.738,10.152,36.311c0,8.361-1.493,16.186-4.479,23.411c-2.986,7.286-7.645,13.557-14.035,18.812
			c-6.391,5.255-14.512,9.436-24.486,12.542c-9.975,3.105-21.799,4.657-35.535,4.657h-97.944V152.681L172.568,152.681z
			 M209.894,241.965h60.917c8.959,0,16.424-2.508,22.396-7.644c5.973-5.136,8.958-12.422,8.958-21.978
			c0-10.75-2.688-18.335-8.062-22.694c-5.375-4.359-13.14-6.569-23.293-6.569h-60.917V241.965L209.894,241.965z M209.894,335.431
			h65.993c11.348,0,20.187-2.926,26.397-8.839c6.271-5.853,9.437-14.214,9.437-24.964c0-10.571-3.106-18.633-9.437-24.366
			c-6.331-5.734-15.05-8.481-26.397-8.481h-65.993V335.431z"></path></symbol><symbol id="css3" xmlns:dc="http://purl.org/dc/elements/1.1/" xmlns:cc="http://creativecommons.org/ns#" xmlns:rdf="http://www.w3.org/1999/02/22-rdf-syntax-ns#" xmlns:svg="http://www.w3.org/2000/svg" xmlns="http://www.w3.org/2000/svg" xmlns:sodipodi="http://sodipodi.sourceforge.net/DTD/sodipodi-0.dtd" xmlns:inkscape="http://www.inkscape.org/namespaces/inkscape" viewBox="0 0 362.73401 511.99998" version="1.1" inkscape:version="0.91 r13725" sodipodi:docname="CSS3.svg"><sodipodi:namedview pagecolor="#ffffff" bordercolor="#666666" borderopacity="1" inkscape:pageopacity="0" inkscape:pageshadow="2" inkscape:zoom="0.35" inkscape:cx="181.367" inkscape:cy="256" inkscape:document-units="px" inkscape:current-layer="layer1" showgrid="false" fit-margin-top="0" fit-margin-left="0" fit-margin-right="0" fit-margin-bottom="0" inkscape:window-width="1366" inkscape:window-height="704" inkscape:window-x="0" inkscape:window-y="27" inkscape:window-maximized="1"></sodipodi:namedview><metadata><rdf:RDF><cc:Work rdf:about="0"><dc:format>image/svg+xml</dc:format><dc:type rdf:resource="http://purl.org/dc/dcmitype/StillImage"></dc:type></cc:Work></rdf:RDF></metadata><g inkscape:label="Calque 1" inkscape:groupmode="layer" transform="translate(-193.633,-276.3622)"><g transform="translate(119,276.3622)"><polygon points="437.367,100.62 404.321,470.819 255.778,512 107.644,470.877 74.633,100.62"></polygon><polygon points="376.03,447.246 404.27,130.894 256,130.894 256,480.523"></polygon><polygon points="150.31,268.217 154.38,313.627 256,313.627 256,268.217" style="fill:#ebebeb"></polygon><polygon points="256,176.305 255.843,176.305 142.132,176.305 146.26,221.716 256,221.716" style="fill:#ebebeb"></polygon><polygon points="256,433.399 256,386.153 255.801,386.206 205.227,372.55 201.994,336.333 177.419,336.333 156.409,336.333 162.771,407.634 255.791,433.457" style="fill:#ebebeb"></polygon><path d="m 160,0 55,0 0,23 -32,0 0,23 32,0 0,23 -55,0 z" inkscape:connector-curvature="0"></path><path d="m 226,0 55,0 0,20 -32,0 0,4 32,0 0,46 -55,0 0,-21 32,0 0,-4 -32,0 z" inkscape:connector-curvature="0"></path><path d="m 292,0 55,0 0,20 -32,0 0,4 32,0 0,46 -55,0 0,-21 32,0 0,-4 -32,0 z" inkscape:connector-curvature="0"></path><polygon points="311.761,313.627 306.49,372.521 255.843,386.191 255.843,433.435 348.937,407.634 349.62,399.962 360.291,280.411 361.399,268.217 369.597,176.305 255.843,176.305 255.843,221.716 319.831,221.716 315.699,268.217 255.843,268.217 255.843,313.627" style="fill:#ffffff"></polygon></g></g></symbol><symbol id="emoji" xmlns="http://www.w3.org/2000/svg" viewBox="0 0 1000 1000"><g><path d="M500,990C229.8,990,10,770.2,10,500C10,229.8,229.8,10,500,10c270.2,0,490,219.8,490,490S770.2,990,500,990z M500,80C268.4,80,80,268.4,80,500s188.4,420,420,420c231.6,0,420-188.4,420-420S731.6,80,500,80z M501.2,785.8c-97.5,0-188-44.1-248.2-121c-11.9-15.2-9.2-37.2,6-49.1c15.2-11.9,37.2-9.3,49.1,6c46.8,59.8,117.2,94.1,193.1,94.1c76.7,0,147.5-34.9,194.3-95.8c11.8-15.3,33.7-18.2,49.1-6.4c15.3,11.8,18.2,33.8,6.4,49.1C690.8,741,599.7,785.8,501.2,785.8L501.2,785.8z M343.7,503.5c-29,0-52.5-23.5-52.5-52.5v-70c0-29,23.5-52.5,52.5-52.5s52.5,23.5,52.5,52.5v70C396.2,480,372.6,503.5,343.7,503.5z M658.7,503.5c-29,0-52.5-23.5-52.5-52.5v-70c0-29,23.5-52.5,52.5-52.5c29,0,52.5,23.5,52.5,52.5v70C711.2,480,687.6,503.5,658.7,503.5z"></path></g></symbol><symbol id="facebook" version="1.1" xmlns="http://www.w3.org/2000/svg" xmlns:xlink="http://www.w3.org/1999/xlink" x="0px" y="0px" width="96.124px" height="96.123px" viewBox="0 0 96.124 96.123" style="enable-background:new 0 0 96.124 96.123;" xml:space="preserve"><g><path d="M72.089,0.02L59.624,0C45.62,0,36.57,9.285,36.57,23.656v10.907H24.037c-1.083,0-1.96,0.878-1.96,1.961v15.803
		c0,1.083,0.878,1.96,1.96,1.96h12.533v39.876c0,1.083,0.877,1.96,1.96,1.96h16.352c1.083,0,1.96-0.878,1.96-1.96V54.287h14.654
		c1.083,0,1.96-0.877,1.96-1.96l0.006-15.803c0-0.52-0.207-1.018-0.574-1.386c-0.367-0.368-0.867-0.575-1.387-0.575H56.842v-9.246
		c0-4.444,1.059-6.7,6.848-6.7l8.397-0.003c1.082,0,1.959-0.878,1.959-1.96V1.98C74.046,0.899,73.17,0.022,72.089,0.02z"></path></g></symbol><symbol id="git" xmlns="http://www.w3.org/2000/svg" viewBox="0 0 97 97" enable-background="new 0 0 97 97" xml:space="preserve"><path d="M92.71,44.408L52.591,4.291c-2.31-2.311-6.057-2.311-8.369,0l-8.33,8.332L46.459,23.19
		c2.456-0.83,5.272-0.273,7.229,1.685c1.969,1.97,2.521,4.81,1.67,7.275l10.186,10.185c2.465-0.85,5.307-0.3,7.275,1.671
		c2.75,2.75,2.75,7.206,0,9.958c-2.752,2.751-7.208,2.751-9.961,0c-2.068-2.07-2.58-5.11-1.531-7.658l-9.5-9.499v24.997
		c0.67,0.332,1.303,0.774,1.861,1.332c2.75,2.75,2.75,7.206,0,9.959c-2.75,2.749-7.209,2.749-9.957,0c-2.75-2.754-2.75-7.21,0-9.959
		c0.68-0.679,1.467-1.193,2.307-1.537V36.369c-0.84-0.344-1.625-0.853-2.307-1.537c-2.083-2.082-2.584-5.14-1.516-7.698
		L31.798,16.715L4.288,44.222c-2.311,2.313-2.311,6.06,0,8.371l40.121,40.118c2.31,2.311,6.056,2.311,8.369,0L92.71,52.779
		C95.021,50.468,95.021,46.719,92.71,44.408z"></path></symbol><symbol id="fb" viewBox="0 0 35 35" version="1.1" xmlns="http://www.w3.org/2000/svg"><g stroke-width="1" fill-rule="evenodd"><g transform="translate(-82.000000, -66.000000)"><g transform="translate(82.000000, 66.185000)"><g transform="translate(0.000000, 1.815000)"><path d="M11.8933314,25.7340298 L11.851693,25.788205 L14.0654102,28.5669574 C12.961313,29.1565571 11.7894137,29.6760278 10.5773382,30.0980685 C15.7362935,28.7609706 20.2241642,28.5514237 23.6661687,30.0980685 C23.2169381,28.6954618 22.4047145,25.1734113 24.6851341,23.0354867 C25.7007822,21.9142428 26.226661,21.3448039 27.02341,20.8160928 C27.6008851,20.4326867 27.8304733,19.460101 27.8304733,19.460101 L24.6549099,20.3801916 L24.8200132,19.4097059 C24.8200132,19.4097059 27.7722485,18.4585411 29.3491598,17.4977158 C30.9256966,16.5373105 30.9234851,15.7243035 30.9234851,15.7243035 L26.331322,16.9778251 L26.6718371,15.7923324 C26.6718371,15.7923324 31.1224865,14.7869923 32.7672061,13.7152964 C33.6483436,13.1408174 35.3446534,11.2477211 34.9050061,11.7545913 C34.4657274,12.2614615 27.0208298,14.2587012 27.0208298,14.2587012 L27.1361798,13.5796587 C27.1361798,13.5796587 31.9597741,12.2287071 33.8771946,11.3430441 C35.7942526,10.457808 37.9453219,8.71841015 39.2804816,7.10037636 C40.6156354,5.48234256 41.1404145,4.99436619 42.2367713,3.22305397 C43.3327596,1.45174175 42.9262792,0 42.9262792,0 C39.6445804,4.27500901 35.9552955,6.89376274 31.2330449,8.72009022 C28.2469056,9.87492861 24.8292219,10.5930326 22.5031095,13.2122064 C21.2807196,14.5879389 21.5895422,16.666228 22.0973663,18.3346569 C22.7419124,20.4520075 21.133677,23.2303399 18.3181639,25.6693611 L16.1803638,22.4332866 C17.8394523,20.7875386 19.3216486,18.8595878 20.7419341,16.7581978 C20.8388608,16.6372538 20.8211685,16.4394605 20.7028759,16.3155763 C20.5842085,16.1925322 20.4095279,16.1908521 20.3122387,16.3117962 C17.8685647,18.9263566 15.6987035,21.2204997 13.1087242,22.9317634 C11.8645876,23.7535839 10.5327451,24.2671744 8.93999044,24.8815481 C7.25400108,25.5320433 5.52968457,25.8625342 3.83263151,26.3538638 C3.11585415,26.5613174 2.3305375,26.7771645 1.65429277,27.1807314 C1.10225021,27.5103891 0.391370264,28.0970418 0.324293236,28.8655409 L0.323924647,28.8663809 L0.324293236,28.8663809 C0.278968959,29.3862647 0.387315793,29.6096721 0.815168262,30.1178024 C2.44145841,30.300482 4.46317734,30.4625739 7.19061597,30.34583 C4.95552067,28.9848049 7.27832186,27.6850815 9.39216974,26.8989486 C10.2722015,26.5722378 11.1032231,26.1812715 11.8933314,25.7340298 Z M0.331665002,31.5485433 C0.123817453,31.5061355 -0.0316965984,31.3419366 0.00552477784,31.1046687 C0.042746154,30.8678208 0.233270052,30.801892 0.441486189,30.8443067 C8.96910288,32.328376 15.6028826,28.030273 23.0636296,30.4999484 C23.9860429,30.8056721 23.6871722,32.1965184 22.5915525,31.8786211 C14.148693,29.4307796 8.56778272,33.2459533 0.331665002,31.5485433 Z M14.5636509,23.8955287 L16.8827663,26.8069857 C16.4873375,27.0938017 16.0753343,27.3734844 15.6496873,27.6430867 L13.6884108,24.5733112 C13.9858072,24.355784 14.2773062,24.1294365 14.5636509,23.8955287 Z M25.7700647,22.9384767 C25.8739885,22.922943 28.3456691,20.5049158 28.3456691,20.5049158 L31.2938499,19.6545342 C31.2938499,19.6545342 31.388565,20.2911688 30.2022847,21.107116 C29.016379,21.9230631 25.7700647,22.9384767 25.7700647,22.9384767 Z M28.6493315,18.9171163 C28.6684981,18.8054126 29.7619002,17.7379238 30.9183248,17.4930956 C32.0386339,17.2558277 35.6118316,15.9120164 35.75998,15.6369539 C35.9084969,15.3614713 34.9879264,17.1987124 33.6446577,17.7484174 C32.3013951,18.2989624 28.5748888,19.5545909 28.5748888,19.5545909 L28.6493315,18.9171163 Z M32.1912053,14.7722917 L31.5429733,16.3995658 C31.5429733,16.3995658 35.3148038,15.0767485 37.0435434,13.6493676 C38.2062341,12.6898024 39.3169658,10.6102464 39.3169658,10.6102464 L35.9855197,12.7229768 L32.1912053,14.7722917 Z M41.8804069,4.67101557 C41.8804069,4.67101557 40.6053209,7.00672648 39.0004029,8.50004297 C37.927261,9.4982428 35.9822024,10.9516646 35.9822024,10.9516646 L35.8635351,11.8490743 C35.8635351,11.8490743 39.4492649,9.5188236 40.2102607,8.53615749 C41.5085677,6.8597483 41.8804069,4.67101557 41.8804069,4.67101557 Z"></path></g></g></g></g></symbol><symbol id="briefcase" version="1.1" xmlns="http://www.w3.org/2000/svg" xmlns:xlink="http://www.w3.org/1999/xlink" x="0px" y="0px" viewBox="0 0 512.376 512.376" style="enable-background:new 0 0 512.376 512.376;" xml:space="preserve"><path style="fill:#FFD15C;" d="M202.296,95.309c-2.133,14.933-1.067,72.533,20.267,74.667c0,0,7.467,1.067,8.533-2.133h1.067
	c0,0,7.467,11.733,20.267,4.267c0,0,10.667,13.867,23.467,2.133c0,0,8.533,9.6,21.333-2.133c0,0-3.2-19.2,4.267-29.867
	c0,0,1.067-8.533,3.2-10.667c0,0,10.667,9.6,11.733,16c0,0,5.333-4.267,2.133-20.267c0,0-2.133-8.533-2.133-13.867
	c0,0-1.067-9.6-11.733-19.2c-9.6-10.667-28.8-25.6-28.8-25.6l-21.333-5.333C255.629,62.242,202.296,73.976,202.296,95.309z"></path><path style="fill:#F7B64C;stroke:#F7B64C;stroke-width:0.1;stroke-miterlimit:10;" d="M307.896,103.842c0,0,1.067,18.133,0,22.4
	c-1.067,4.267-1.067,4.267-1.067,4.267l2.133,2.133c0-1.067,0-1.067-1.067-2.133c1.067,0,1.067-1.067,2.133-1.067
	c-1.067,0-2.133,0-2.133,0c1.067-1.067,3.2-2.133,4.267-3.2c-1.067,0-2.133,1.067-3.2,0c1.067,0,1.067,0,2.133,0
	c-1.067,0-2.133,0-2.133-1.067l0,0l0,0c1.067,0,1.067-1.067,2.133-2.133c-1.067,0-1.067,0-2.133,0c0-3.2,0-6.4,0-8.533
	s0-3.2,0-5.333C307.896,107.042,307.896,105.976,307.896,103.842"></path><path style="fill:#FFD15C;" d="M317.496,135.842v11.733l-3.2,5.333l-7.467-9.6l-3.2-6.4c0,0,1.067-5.333,2.133-5.333
	L317.496,135.842z"></path><path style="fill:#415A6B;" d="M324.963,222.242H192.696v-68.267c0-12.8,10.667-23.467,23.467-23.467h84.267
	c12.8,0,23.467,10.667,23.467,23.467v68.267H324.963z M217.229,200.909h83.2v-43.733c0-3.2-2.133-5.333-5.333-5.333h-72.533
	c-3.2,0-5.333,2.133-5.333,5.333V200.909z"></path><g><path style="fill:#344A5E;" d="M218.296,130.509h-2.133c-5.333,0-10.667,2.133-14.933,5.333c2.133,13.867,6.4,28.8,16,35.2v-12.8
		c0-1.067,0-2.133,1.067-3.2V130.509z"></path><path style="fill:#344A5E;" d="M306.829,130.509c-2.133,0-4.267-1.067-5.333-1.067l0,0v28.8l0,0v12.8c2.133-3.2,6.4-16,4.267-28.8
		C304.696,139.042,305.763,133.709,306.829,130.509L306.829,130.509z"></path></g><path style="fill:#FFD15C;" d="M304.696,130.509c-25.6-18.133-61.867-10.667-101.333,0c2.133,19.2,7.467,38.4,20.267,40.533
	c0,0,7.467,1.067,8.533-2.133h1.067c0,0,7.467,11.733,20.267,4.267c0,0,10.667,13.867,23.467,2.133c0,0,8.533,9.6,21.333-2.133
	c0,0,7.467-13.867,4.267-29.867C302.563,141.176,303.629,133.709,304.696,130.509z"></path><g><path style="fill:#F7B64C;" d="M253.496,165.709c0-4.267,0-10.667,0-10.667l0,0l0,0c0,0-1.067,6.4-1.067,10.667
		c0,2.133,0,5.333,0,6.4l0,0h1.067c0,0,0,1.067,1.067,1.067l0,0C254.563,171.042,253.496,168.909,253.496,165.709z"></path><path style="fill:#F7B64C;" d="M276.963,165.709c-1.067-4.267-1.067-10.667-1.067-10.667l0,0c0,0,0,6.4,0,10.667
		c0,3.2,1.067,6.4,1.067,8.533l0,0c0,0,1.067,0,1.067-1.067l1.067,1.067l0,0C278.029,174.242,276.963,169.976,276.963,165.709z"></path><path style="fill:#F7B64C;" d="M233.229,165.709c0-1.067,0-2.133,0-3.2c0-1.067,0-2.133,0-3.2c-1.067-6.4-1.067-7.467-1.067-7.467
		l0,0l0,0l0,0c0,0,0,6.4,0,9.6v7.467l1.067-1.067h1.067c0,0,0,0,1.067,1.067l0,0C233.229,167.842,233.229,166.776,233.229,165.709z"></path></g><path style="fill:#415A6B;" d="M442.296,191.309h-371.2c-18.133,0-32,13.867-32,32v257.067c0,18.133,13.867,32,32,32h371.2
	c18.133,0,32-13.867,32-32V223.309C474.296,206.242,459.363,191.309,442.296,191.309z"></path><path style="fill:#344A5E;" d="M452.963,191.309H60.429c-19.2,0-34.133,14.933-34.133,34.133v147.2h459.733v-147.2
	C487.096,207.309,471.096,191.309,452.963,191.309z"></path><rect x="210.38" y="5.819" transform="matrix(0.2023 0.9793 -0.9793 0.2023 248.1012 -188.4221)" style="fill:#F3F3F3;" width="58.665" height="104.531"></rect><rect x="199.021" y="-25.632" transform="matrix(0.2023 0.9793 -0.9793 0.2023 224.8564 -189.7207)" style="fill:#F3705A;" width="59.732" height="137.597"></rect><path style="fill:#E8EAE9;" d="M272.696,340.642h-32c-3.2,0-5.333,2.133-5.333,5.333v54.4c0,3.2,2.133,5.333,5.333,5.333h32
	c3.2,0,5.333-2.133,5.333-5.333v-54.4C278.029,342.776,275.896,340.642,272.696,340.642z"></path></symbol><symbol id="gmail" version="1.1" xmlns="http://www.w3.org/2000/svg" x="0px" y="0px" viewBox="0 0 512 512" xml:space="preserve"><path d="M464,64h-16H64H48C21.504,64,0,85.504,0,112v16v256v16c0,26.496,21.504,48,48,48h16h384h16c26.496,0,48-21.504,48-48v-16
		V128v-16C512,85.504,490.496,64,464,64z M407.488,96L256,215.616L104.512,96H407.488z M448,416H64V148.672l192,147.68L448,148.64
		V416z"></path></symbol><symbol id="gulp" viewBox="0 0 175 387" xmlns="http://www.w3.org/2000/svg"><g stroke-width="1" fill-rule="evenodd"><g transform="translate(0.000000, 1.000000)"><path d="M86.72,303.739 C64.146,303.739 46.703,300.348 38.315,298.327 C32.579,296.945 27.973,295.515 24.474,294.046 L35.661,313.159 L40.037,372.878 C40.037,379.573 61.305,385 87.54,385 C113.775,385 135.043,379.573 135.043,372.878 L138.508,312.509 L149.093,293.99 C145.579,295.479 140.932,296.928 135.124,298.327 C126.736,300.348 109.293,303.739 86.72,303.739 Z M149.456,109.411 C132.888,111.725 110.899,113 87.54,113 C64.181,113 42.192,111.725 25.624,109.411 C17.417,108.265 10.924,106.913 6.325,105.395 C5.228,105.032 3.369,104.413 1.58,103.427 L11.845,197.9 C12.322,196.273 12.853,194.648 13.442,193.029 C14.647,189.711 16.041,186.467 17.623,183.298 C19.206,180.13 20.929,177.135 22.792,174.314 C24.654,171.494 26.637,168.897 28.738,166.524 C30.84,164.152 32.996,162.112 35.21,160.402 C37.423,158.694 39.657,157.358 41.912,156.396 C44.168,155.434 46.402,154.952 48.615,154.952 C51.164,154.952 53.63,155.649 56.012,157.043 C58.393,158.436 60.619,160.693 62.693,163.812 C63.169,164.509 63.471,165.214 63.596,165.927 C63.723,166.641 63.785,167.313 63.785,167.943 C63.785,169.436 63.428,170.615 62.714,171.477 C62,172.34 61.152,172.771 60.172,172.771 C59.274,172.771 58.441,172.298 57.671,171.353 C56.9,170.407 56.039,169.055 55.086,167.296 C54.189,165.703 53.202,164.551 52.124,163.837 C51.045,163.124 49.876,162.767 48.615,162.767 C46.654,162.767 44.56,163.58 42.333,165.206 C40.105,166.831 37.899,168.98 35.715,171.651 C33.529,174.323 31.435,177.375 29.432,180.81 C27.429,184.244 25.656,187.761 24.115,191.361 C22.574,194.963 21.35,198.514 20.439,202.014 C19.528,205.514 19.073,208.658 19.073,211.445 C19.073,212.375 19.137,213.33 19.262,214.307 C19.389,215.287 19.626,216.174 19.977,216.971 C20.326,217.768 20.803,218.422 21.405,218.935 C22.008,219.451 22.771,219.707 23.695,219.707 C24.732,219.707 25.908,219.359 27.226,218.662 C28.542,217.967 29.908,217.053 31.322,215.926 C32.737,214.797 34.159,213.52 35.588,212.092 C37.018,210.666 38.348,209.223 39.58,207.762 C40.812,206.303 41.905,204.9 42.857,203.557 C43.81,202.213 44.524,201.043 45.001,200.047 L48.909,188.35 C49.385,187.09 50.008,186.194 50.779,185.663 C51.549,185.132 52.341,184.866 53.154,184.866 C53.545,184.866 53.937,184.933 54.33,185.065 C54.723,185.198 55.072,185.406 55.381,185.687 C55.689,185.97 55.934,186.334 56.116,186.783 C56.298,187.23 56.389,187.753 56.389,188.35 C56.389,189.943 56.249,191.435 55.969,192.83 C55.689,194.225 55.332,195.584 54.897,196.912 C54.463,198.238 53.979,199.574 53.447,200.918 C52.915,202.262 52.396,203.664 51.893,205.125 C51.781,205.291 51.578,205.812 51.283,206.691 C50.989,207.572 50.633,208.676 50.212,210.002 C49.792,211.33 49.336,212.814 48.846,214.457 C48.355,216.1 47.852,217.775 47.334,219.484 C46.815,221.193 46.318,222.869 45.842,224.512 C45.365,226.154 44.937,227.639 44.56,228.967 C44.182,230.293 43.867,231.404 43.614,232.301 C43.362,233.197 43.208,233.727 43.152,233.895 C43.012,234.424 42.787,235.014 42.48,235.66 C42.172,236.307 41.808,236.922 41.387,237.502 C40.967,238.082 40.505,238.565 40,238.945 C39.496,239.326 38.978,239.518 38.445,239.518 C37.549,239.518 36.897,239.219 36.492,238.623 C36.085,238.025 35.883,236.93 35.883,235.338 L35.883,234.641 C35.883,234.408 35.896,234.158 35.924,233.895 C35.951,233.363 36.162,232.367 36.555,230.906 C36.947,229.447 37.416,227.797 37.963,225.955 C38.509,224.113 39.098,222.205 39.728,220.23 C40.357,218.256 40.925,216.49 41.43,214.93 C39.943,216.59 38.334,218.24 36.597,219.883 C34.859,221.525 33.08,223.002 31.26,224.312 C29.438,225.623 27.603,226.693 25.755,227.523 C23.906,228.352 22.127,228.768 20.418,228.768 C18.457,228.768 16.769,228.336 15.353,227.473 C15.098,227.316 14.857,227.141 14.617,226.967 L20.329,286.855 C21.816,290.582 49.81,299.739 86.72,299.739 C123.647,299.739 151.652,290.573 153.113,286.849 L161.318,215.647 C160.639,216.27 159.978,216.879 159.346,217.469 C156.992,219.658 154.771,221.541 152.684,223.117 C150.598,224.693 148.559,225.914 146.57,226.775 C144.58,227.639 142.451,228.07 140.182,228.07 C138.053,228.07 136.406,227.605 135.244,226.676 C134.082,225.748 133.5,224.471 133.5,222.844 L133.5,222.471 C133.5,222.355 133.514,222.213 133.543,222.047 C133.654,221.053 134.09,219.906 134.846,218.613 C135.602,217.318 136.512,215.975 137.576,214.582 C138.641,213.188 139.775,211.777 140.98,210.35 C142.185,208.924 143.299,207.572 144.322,206.293 C145.344,205.018 146.191,203.848 146.863,202.785 C147.537,201.723 147.873,200.861 147.873,200.197 C147.873,199.799 147.732,199.484 147.453,199.25 C147.172,199.02 146.709,198.902 146.066,198.902 C144.945,198.902 143.789,199.193 142.6,199.773 C141.408,200.353 140.23,201.135 139.068,202.113 C137.906,203.092 136.771,204.213 135.664,205.473 C134.559,206.734 133.522,208.045 132.555,209.404 C131.588,210.766 130.707,212.135 129.908,213.512 C129.109,214.889 128.43,216.158 127.869,217.318 C127.701,217.684 127.463,218.199 127.154,218.861 C126.846,219.525 126.51,220.273 126.146,221.102 C125.781,221.932 125.396,222.787 124.99,223.664 C124.584,224.545 124.213,225.375 123.877,226.154 C123.541,226.934 123.24,227.629 122.975,228.244 C122.707,228.857 122.518,229.281 122.406,229.514 C122.266,229.812 122.035,230.375 121.713,231.205 C121.391,232.035 121.019,233.006 120.6,234.117 C120.18,235.228 119.738,236.398 119.275,237.627 C118.815,238.853 118.379,240.016 117.973,241.111 C117.566,242.205 117.209,243.168 116.902,243.998 C116.594,244.826 116.396,245.391 116.312,245.69 C116.033,246.553 115.703,247.364 115.326,248.13 C114.947,248.892 114.514,249.564 114.023,250.146 C113.533,250.726 112.973,251.19 112.342,251.538 C111.711,251.888 111.004,252.061 110.221,252.061 C109.211,252.061 108.379,251.819 107.719,251.339 C107.062,250.858 106.732,249.936 106.732,248.577 C106.732,247.913 106.816,247.233 106.984,246.537 C107.152,245.84 107.363,245.15 107.615,244.471 C107.867,243.789 108.127,243.127 108.393,242.48 C108.658,241.832 108.904,241.211 109.127,240.613 C110.641,237.295 112.182,233.969 113.75,230.633 C115.318,227.299 116.824,223.998 118.268,220.729 C118.568,220.047 118.844,219.379 119.137,218.701 C119.049,218.787 118.963,218.877 118.877,218.961 C117.055,220.721 115.242,222.271 113.435,223.615 C111.627,224.959 109.834,226.029 108.057,226.826 C106.277,227.621 104.547,228.02 102.865,228.02 C101.717,228.02 100.758,227.838 99.988,227.473 C99.217,227.107 98.602,226.609 98.139,225.98 C97.676,225.35 97.346,224.603 97.15,223.74 C97.084,223.445 97.043,223.137 97,222.83 C96.508,223.213 96.012,223.586 95.512,223.94 C93.775,225.166 92.066,226.154 90.385,226.9 C88.705,227.647 87.191,228.02 85.848,228.02 C84.502,228.02 83.41,227.572 82.568,226.676 C81.728,225.781 81.309,224.254 81.309,222.098 C81.309,220.57 81.533,218.795 81.98,216.772 C81.252,218.066 80.342,219.377 79.25,220.703 C78.156,222.031 76.91,223.242 75.51,224.338 C74.107,225.432 72.539,226.32 70.803,227 C69.065,227.68 67.174,228.02 65.13,228.02 C64.205,228.02 63.316,227.904 62.461,227.672 C61.606,227.439 60.857,227.041 60.213,226.477 C59.568,225.914 59.051,225.158 58.658,224.213 C58.266,223.268 58.07,222.08 58.07,220.654 C58.07,220.621 58.126,220.115 58.238,219.135 C58.35,218.156 58.707,216.613 59.31,214.506 C59.912,212.4 60.844,209.67 62.103,206.318 C63.365,202.967 65.144,198.902 67.441,194.125 C68.029,192.863 68.709,191.959 69.478,191.412 C70.25,190.864 71.082,190.59 71.978,190.59 C72.371,190.59 72.777,190.649 73.197,190.764 C73.619,190.881 74.01,191.063 74.375,191.312 C74.738,191.561 75.033,191.877 75.258,192.258 C75.48,192.639 75.594,193.078 75.594,193.576 C75.594,193.908 75.551,194.225 75.467,194.521 C75.326,195.088 75.025,195.824 74.565,196.736 C74.102,197.65 73.562,198.695 72.945,199.873 C72.33,201.051 71.678,202.32 70.992,203.682 C70.305,205.041 69.668,206.451 69.08,207.912 C68.492,209.373 67.987,210.857 67.567,212.367 C67.147,213.877 66.908,215.346 66.853,216.772 C66.853,217.369 66.992,217.916 67.273,218.414 C67.553,218.912 68.016,219.16 68.66,219.16 C70.48,219.16 72.217,218.562 73.871,217.369 C75.523,216.174 77.049,214.689 78.451,212.914 C79.852,211.139 81.119,209.23 82.254,207.189 C83.389,205.148 84.334,203.283 85.09,201.59 C85.623,200.463 86.092,199.25 86.498,197.957 C86.904,196.662 87.346,195.469 87.822,194.373 C88.299,193.277 88.844,192.365 89.461,191.635 C90.076,190.906 90.848,190.54 91.771,190.54 C92.781,190.54 93.578,190.922 94.168,191.685 C94.756,192.449 95.049,193.361 95.049,194.422 C95.049,195.019 94.861,195.842 94.482,196.887 C94.103,197.932 93.627,199.127 93.053,200.471 C92.478,201.815 91.855,203.25 91.184,204.775 C90.512,206.303 89.887,207.853 89.315,209.43 C88.738,211.006 88.264,212.549 87.885,214.059 C87.506,215.568 87.318,216.971 87.318,218.264 C87.318,219.459 87.934,220.057 89.166,220.057 C90.035,220.057 91.113,219.758 92.402,219.16 C93.691,218.562 95.043,217.725 96.457,216.646 C96.81,216.377 97.166,216.096 97.519,215.801 C97.914,214.172 98.377,212.666 98.916,211.297 C99.896,208.707 100.891,206.137 101.9,203.582 C102.908,201.027 103.832,198.687 104.674,196.563 L117.406,164.459 C117.91,163.165 118.59,162.252 119.443,161.721 C120.299,161.191 121.16,160.925 122.029,160.925 C122.896,160.925 123.687,161.207 124.402,161.771 C125.117,162.336 125.475,163.248 125.475,164.509 C125.475,165.106 125.355,165.737 125.117,166.4 C124.879,167.064 124.578,167.777 124.213,168.54 C123.514,170.101 122.68,172.008 121.713,174.264 C120.746,176.521 119.709,178.977 118.603,181.631 C117.496,184.286 116.361,187.048 115.199,189.918 C114.037,192.789 112.902,195.584 111.795,198.305 C110.69,201.027 109.652,203.605 108.685,206.045 C107.719,208.484 106.887,210.6 106.185,212.391 C105.877,213.154 105.576,214.043 105.283,215.055 C104.988,216.066 104.842,216.971 104.842,217.768 C104.842,218.264 104.926,218.662 105.094,218.961 C105.262,219.26 105.584,219.41 106.06,219.41 C106.648,219.41 107.383,219.203 108.266,218.787 C109.148,218.373 110.1,217.824 111.123,217.144 C112.147,216.465 113.211,215.685 114.316,214.805 C115.424,213.926 116.523,213.014 117.615,212.068 C118.709,211.121 119.752,210.176 120.746,209.23 C121.74,208.285 122.631,207.414 123.416,206.617 C123.6,206.426 123.82,206.291 124.062,206.19 C124.535,204.777 124.967,203.393 125.348,202.039 C125.572,201.441 125.881,200.596 126.273,199.5 C126.664,198.404 127.113,197.326 127.617,196.264 C128.121,195.203 128.69,194.281 129.318,193.502 C129.949,192.723 130.629,192.332 131.357,192.332 C132.478,192.332 133.291,192.59 133.795,193.103 C134.299,193.619 134.551,194.373 134.551,195.369 C134.551,195.568 134.523,195.883 134.467,196.314 C134.41,196.746 134.342,197.203 134.258,197.684 C134.174,198.164 134.082,198.621 133.984,199.053 C133.885,199.484 133.795,199.799 133.711,199.998 C134.746,198.869 135.867,197.75 137.072,196.639 C138.277,195.527 139.523,194.521 140.812,193.627 C142.102,192.73 143.418,192.002 144.764,191.435 C146.107,190.873 147.453,190.59 148.797,190.59 C149.721,190.59 150.639,190.723 151.549,190.989 C152.459,191.254 153.273,191.644 153.986,192.158 C154.701,192.674 155.283,193.32 155.73,194.1 C156.178,194.879 156.402,195.783 156.402,196.812 C156.402,198.174 156.06,199.625 155.373,201.168 C154.687,202.711 153.826,204.262 152.789,205.82 C151.752,207.381 150.631,208.898 149.428,210.375 C148.223,211.852 147.096,213.195 146.045,214.406 C144.994,215.619 144.111,216.646 143.396,217.492 C142.684,218.34 142.31,218.912 142.283,219.211 C142.283,219.609 142.41,219.932 142.662,220.182 C142.914,220.43 143.334,220.555 143.922,220.555 C144.398,220.555 145.1,220.289 146.023,219.758 C146.947,219.227 148.244,218.307 149.91,216.996 C151.576,215.685 153.693,213.926 156.256,211.719 C158.014,210.207 160.072,208.404 162.391,206.353 L173.505,103.424 C171.715,104.412 169.853,105.032 168.755,105.395 C164.157,106.913 157.664,108.265 149.456,109.411 Z M87.474,84.99 C39.425498,84.99 0.474,90.3623808 0.474,96.99 C0.474,103.617619 39.425498,108.99 87.474,108.99 C135.522502,108.99 174.474,103.617619 174.474,96.99 C174.474,90.3623808 135.522502,84.99 87.474,84.99 Z M122.212,100.497 C122.212,102.052 117.583,103.313 111.872,103.313 C106.162,103.313 101.533,102.052 101.533,100.497 C101.533,98.941 106.162,97.68 111.872,97.68 C117.583,97.68 122.212,98.941 122.212,100.497 Z"></path><path d="M103.626755,99.2519937 C103.575489,99.3337287 103.549,99.4171891 103.549,99.502 C103.549,100.509 107.276,101.324 111.872,101.324 C116.469,101.324 120.195,100.509 120.195,99.502 L131.066,55.424 L174.299046,9.77923896 C174.313162,9.76531306 174.326816,9.75090155 174.34,9.736 C175.255,8.701 173.398,5.498 170.317,2.751 C167.236,0.004 163.909,-0.926 162.875,0.12 C162.867271,0.127822825 162.859733,0.13575616 162.852383,0.143799116 L116.725,48.682 L103.626755,99.2519937 Z"></path></g></g></symbol><symbol id="house" version="1.1" xmlns="http://www.w3.org/2000/svg" viewBox="0 0 611.997 611.998"><path d="M511.114,300.251c-9.94,0-17.638,7.663-17.638,17.651v241.105H368.401v-98.453c0-9.236-7.697-17.31-17.002-17.31h-90.435
			c-9.948,0-17.96,8.073-17.96,17.31v98.453h-124.76v-233.1c0-9.306-7.69-17.036-17.638-17.036c-9.298,0-16.995,7.73-16.995,17.036
			v250.752c0,9.305,7.697,17.036,16.995,17.036h160.358c9.298,0,16.995-7.731,16.995-17.036v-98.454h55.801v98.454
			c0,9.305,7.697,17.036,17.639,17.036h159.715c9.299,0,16.995-7.731,16.995-17.036V317.903
			C528.109,307.915,520.413,300.251,511.114,300.251z"></path><path d="M607.003,314.003L467.819,174.225V78.919c0-9.921-8.019-17.583-17.96-17.583c-9.305,0-17.001,7.663-17.001,17.583v60.345
			L318.046,23.774c-3.518-3.558-7.697-5.474-11.864-5.474c-4.81,0-8.983,1.984-12.507,5.474L5.361,312.087
			c-6.917,6.91-7.375,17.994,0,24.357c6.411,7.389,17.454,6.91,24.371,0l276.45-275.793l275.807,278.393
			c2.873,2.874,7.054,4.516,12.507,4.516c4.81,0,8.976-1.642,12.507-4.516C613.42,332.613,613.899,320.982,607.003,314.003z"></path></symbol><symbol id="html5" xmlns="http://www.w3.org/2000/svg" viewBox="0 0 512 512"><polygon points="107.644,470.877 74.633,100.62 437.367,100.62 404.321,470.819 255.778,512"></polygon><polygon points="256,480.523 376.03,447.246 404.27,130.894 256,130.894"></polygon><polygon style="fill:#EBEBEB" points="256,268.217 195.91,268.217 191.76,221.716 256,221.716 256,176.305 255.843,176.305 142.132,176.305 143.219,188.488 154.38,313.627 256,313.627"></polygon><polygon style="fill:#EBEBEB" points="256,386.153 255.801,386.206 205.227,372.55 201.994,336.333 177.419,336.333 156.409,336.333 162.771,407.634 255.791,433.457 256,433.399"></polygon><path d="M108.382,0h23.077v22.8h21.11V0h23.078v69.044H152.57v-23.12h-21.11v23.12h-23.077V0z"></path><path d="M205.994,22.896h-20.316V0h63.72v22.896h-20.325v46.148h-23.078V22.896z"></path><path d="M259.511,0h24.063l14.802,24.26L313.163,0h24.072v69.044h-22.982V34.822l-15.877,24.549h-0.397l-15.888-24.549v34.222h-22.58V0z"></path><path d="M348.72,0h23.084v46.222h32.453v22.822H348.72V0z"></path><polygon style="fill:#ffffff" points="255.843,268.217 255.843,313.627 311.761,313.627 306.49,372.521 255.843,386.191 255.843,433.435 348.937,407.634 349.62,399.962 360.291,280.411 361.399,268.217 349.162,268.217"></polygon><polygon style="fill:#ffffff" points="255.843,176.305 255.843,204.509 255.843,221.605 255.843,221.716 365.385,221.716 365.385,221.716 365.531,221.716 366.442,211.509 368.511,188.488 369.597,176.305"></polygon></symbol><symbol id="instagram" xmlns="http://www.w3.org/2000/svg" x="0px" y="0px" width="169.063px" height="169.063px" viewBox="0 0 169.063 169.063" style="enable-background:new 0 0 169.063 169.063;" xml:space="preserve"><path d="M122.406,0H46.654C20.929,0,0,20.93,0,46.655v75.752c0,25.726,20.929,46.655,46.654,46.655h75.752
		c25.727,0,46.656-20.93,46.656-46.655V46.655C169.063,20.93,148.133,0,122.406,0z M154.063,122.407
		c0,17.455-14.201,31.655-31.656,31.655H46.654C29.2,154.063,15,139.862,15,122.407V46.655C15,29.201,29.2,15,46.654,15h75.752
		c17.455,0,31.656,14.201,31.656,31.655V122.407z"></path><path d="M84.531,40.97c-24.021,0-43.563,19.542-43.563,43.563c0,24.02,19.542,43.561,43.563,43.561s43.563-19.541,43.563-43.561
		C128.094,60.512,108.552,40.97,84.531,40.97z M84.531,113.093c-15.749,0-28.563-12.812-28.563-28.561
		c0-15.75,12.813-28.563,28.563-28.563s28.563,12.813,28.563,28.563C113.094,100.281,100.28,113.093,84.531,113.093z"></path><path d="M129.921,28.251c-2.89,0-5.729,1.17-7.77,3.22c-2.051,2.04-3.23,4.88-3.23,7.78c0,2.891,1.18,5.73,3.23,7.78
		c2.04,2.04,4.88,3.22,7.77,3.22c2.9,0,5.73-1.18,7.78-3.22c2.05-2.05,3.22-4.89,3.22-7.78c0-2.9-1.17-5.74-3.22-7.78
		C135.661,29.421,132.821,28.251,129.921,28.251z"></path></symbol><symbol id="idea" version="1.1" xmlns="http://www.w3.org/2000/svg" xmlns:xlink="http://www.w3.org/1999/xlink" x="0px" y="0px" viewBox="0 0 512 512" style="enable-background:new 0 0 512 512;" xml:space="preserve"><path style="fill:#FFD15C;" d="M314.667,391.467c6.4-21.333,19.2-40.533,36.267-55.467c32-26.667,52.267-67.2,52.267-112
	c0-83.2-69.333-151.467-154.667-147.2C172.8,80,110.933,144,108.8,219.733C107.733,266.667,128,308.267,161.067,336
	C179.2,350.933,192,370.133,198.4,391.467L314.667,391.467L314.667,391.467z"></path><path style="fill:#FFFFFF;" d="M242.133,393.6h9.6l-42.667-158.933c1.067,0,2.133,0,3.2,0c5.333,0,10.667-2.133,14.933-6.4
	c2.133-2.133,4.267-3.2,7.467-3.2c3.2,0,5.333,1.067,7.467,3.2c7.467,8.533,20.267,8.533,27.733,0c2.133-2.133,4.267-3.2,7.467-3.2
	c2.133,0,5.333,1.067,7.467,3.2c4.267,4.267,8.533,6.4,14.933,6.4c1.067,0,2.133,0,3.2,0l-41.6,158.933h9.6l43.733-166.4
	c0-2.133,0-4.267-2.133-5.333c-2.133-1.067-4.267,0-5.333,1.067c-2.133,2.133-4.267,3.2-6.4,3.2c-3.2,0-5.333-1.067-8.533-3.2
	c-4.267-4.267-8.533-6.4-13.867-6.4s-9.6,2.133-13.867,6.4s-10.667,4.267-14.933,0c-3.2-4.267-8.533-6.4-13.867-6.4l0,0
	c-5.333,0-10.667,2.133-13.867,6.4c-2.133,2.133-5.333,3.2-8.533,3.2c-2.133,0-5.333-1.067-6.4-3.2
	c-1.067-1.067-3.2-2.133-5.333-1.067c-2.133,1.067-3.2,3.2-2.133,5.333L242.133,393.6z"></path><g><path style="fill:#344A5E;" d="M222.933,489.6C228.267,502.4,241.067,512,256,512c14.933,0,27.733-9.6,33.067-22.4H222.933z"></path><path style="fill:#344A5E;" d="M295.467,490.667H217.6c-10.667,0-19.2-8.533-19.2-19.2V390.4h116.267v81.067
		C314.667,482.133,306.133,490.667,295.467,490.667z"></path></g><g><path style="fill:#415A6B;" d="M313.6,430.933H198.4c-6.4,0-11.733-5.333-11.733-11.733l0,0c0-6.4,5.333-11.733,11.733-11.733
		h115.2c6.4,0,11.733,5.333,11.733,11.733l0,0C325.333,425.6,320,430.933,313.6,430.933z"></path><path style="fill:#415A6B;" d="M313.6,468.267H198.4c-6.4,0-11.733-5.333-11.733-11.733l0,0c0-6.4,5.333-11.733,11.733-11.733
		h115.2c6.4,0,11.733,5.333,11.733,11.733l0,0C325.333,462.933,320,468.267,313.6,468.267z"></path></g><g><path style="fill:#FFD15C;" d="M256,0c-5.333,0-10.667,4.267-10.667,10.667v36.267c0,5.333,4.267,10.667,10.667,10.667
		c6.4,0,10.667-4.267,10.667-10.667V10.667C266.667,4.267,261.333,0,256,0z"></path><path style="fill:#FFD15C;" d="M113.067,65.067c-4.267-4.267-10.667-4.267-14.933,0s-4.267,10.667,0,14.933l25.6,25.6
		c4.267,4.267,10.667,4.267,14.933,0s4.267-10.667,0-14.933L113.067,65.067z"></path><path style="fill:#FFD15C;" d="M80,212.267H43.733c-5.333,0-10.667,4.267-10.667,10.667l0,0c0,5.333,4.267,10.667,10.667,10.667H80
		c5.333,0,10.667-4.267,10.667-10.667l0,0C90.667,217.6,85.333,212.267,80,212.267z"></path><path style="fill:#FFD15C;" d="M123.733,340.267l-25.6,25.6c-4.267,4.267-4.267,10.667,0,14.933s10.667,4.267,14.933,0l25.6-25.6
		c4.267-4.267,4.267-10.667,0-14.933S128,336,123.733,340.267z"></path><path style="fill:#FFD15C;" d="M388.267,340.267C384,336,377.6,336,373.333,340.267c-4.267,4.267-4.267,10.667,0,14.933l25.6,25.6
		c4.267,4.267,10.667,4.267,14.933,0s4.267-10.667,0-14.933L388.267,340.267z"></path><path style="fill:#FFD15C;" d="M468.267,212.267H432c-5.333,0-10.667,4.267-10.667,10.667l0,0c0,5.333,4.267,10.667,10.667,10.667
		h36.267c5.333,0,10.667-4.267,10.667-10.667l0,0C478.933,217.6,474.667,212.267,468.267,212.267z"></path><path style="fill:#FFD15C;" d="M398.933,65.067l-25.6,25.6c-4.267,4.267-4.267,10.667,0,14.933c4.267,4.267,10.667,4.267,14.933,0
		l25.6-25.6c4.267-4.267,4.267-10.667,0-14.933S403.2,60.8,398.933,65.067z"></path></g></symbol><symbol id="jquery" xmlns="http://www.w3.org/2000/svg" version="1.1" viewBox="0 0 420 120"><path fill-rule="nonzero" d="m119.88,46.171,0.001-0.005s-3.352,11.88-3.352,11.88,3.3508-11.875,3.3508-11.875z"></path><path fill-rule="nonzero" d="m137.12,71.962s-3.6938-0.022-3.6938-0.022,3.6938,0.022,3.6938,0.022z"></path><path fill-rule="nonzero" d="m136.17,89.703h0.004s-22.131,0.0806-22.131,0.0806,22.128-0.0806,22.128-0.0806z"></path><path fill-rule="nonzero" d="m140.81,71.984s-3.6951-0.022-3.6951-0.022,3.6951,0.022,3.6951,0.022z"></path><path fill-rule="nonzero" d="m138.11,88.195s3.855-14.702,3.855-14.702-3.855,14.705-3.855,14.705v-0.002z"></path><path fill-rule="nonzero" d="m219.59,20.49s-7.1814,33.76-7.1814,33.76,7.1814-33.76,7.1814-33.76z"></path><path fill-rule="nonzero" d="m201.13,20.49s-5.4517,25.22-5.4517,25.22,5.4517-25.222,5.4517-25.222v0.002z"></path><path fill-rule="nonzero" d="m218.36,18.971h-15.356c-0.85205,0-1.698,0.68359-1.8799,1.5161,0,0-5.4516,25.222-5.4516,25.222s-5.4517,25.222-5.4517,25.222c-0.18066,0.83251-1.0254,1.5137-1.8774,1.5137h-10.869c-10.753,0-9.5093-7.4365-7.3071-17.627,0.022-0.1025,0.044-0.20263,0.0659-0.30761,0,0,0.24169-1.2842,0.24169-1.2842,0.0146-0.083,0.0317-0.16603,0.0451-0.2417,0,0,0.49072-2.6148,0.49072-2.6148s0.52612-2.8027,0.52612-2.8027c0.15992-0.84473,0.40283-2.0801,0.56153-2.8564,0,0,2.478-12.109,2.478-12.109s2.4805-12.109,2.4805-12.109c0.1709-0.83496-0.38819-1.521-1.2402-1.521h-15.762c-0.85206,0-1.6956,0.68604-1.8701,1.5186,0,0-3.3887,16.079-3.3887,16.079s-3.3887,16.077-3.3887,16.077c-0.003,0.007-0.004,0.0171-0.005,0.0244,0,0-0.31494,1.4942-0.31494,1.4942-3.9038,17.822-2.8686,34.817,18.347,35.349,0.3467,0.01,0.61525,0.0125,0.61525,0.0125h33.302c0.85206,0,1.6956-0.6836,1.8738-1.5186,0,0,7.1814-33.757,7.1814-33.757s7.1814-33.76,7.1814-33.76c0.17701-0.83497-0.37598-1.5186-1.228-1.5186z"></path><path fill-rule="nonzero" d="m279.62,72.621c0.85327,0,1.4111,0.6836,1.2402,1.5186,0,0-1.4917,7.2876-1.4917,7.2876"></path><path fill-rule="nonzero" d="m277.88,88.719s1.4905-7.2925,1.4905-7.2925-1.4917,7.2949-1.4917,7.2949c0-0.002,0.00099-0.002,0.00099-0.002z"></path><path fill-rule="nonzero" d="m276.01,90.253c0.002,0,0.005-0.002,0.007-0.002-4.519,0.0366-18.099,0.13916-28.306,0.13916,12.422,0,28.298-0.13672,28.298-0.13672z"></path><path fill-rule="nonzero" d="m238.55,63.234c-0.0125-0.79835,0.896-2.1729,1.7493-2.1729,0,0-1.9177-0.0317-1.9177-0.0317-0.86426,8.6914,0.16845,2.2046,0.16845,2.2046z"></path><path fill-rule="nonzero" d="m249.11,90.387c-0.0976,0-0.19775,0-0.29542,0.002,0.0976-0.002,0.19777-0.002,0.29542-0.002z"></path><path fill-rule="nonzero" d="m279.62,72.621c0.85327,0,1.4111,0.6836,1.2402,1.5186,0,0-1.4917,7.2876-1.4917,7.2876s-0.24293,1.189-0.24293,1.189"></path><path fill-rule="nonzero" d="m256.38,90.37h-0.0623,0.0623z"></path><path fill-rule="nonzero" d="m252.61,90.382h-0.21852,0.21852z"></path><path fill-rule="nonzero" d="m251.46,90.385c-0.12201,0-0.2417,0-0.36134,0.002,0.11963-0.002,0.23927-0.002,0.36134-0.002z"></path><path fill-rule="nonzero" d="m250.29,90.387h-0.31737,0.31737z"></path><path fill-rule="nonzero" d="m252.39,90.382c-0.31127,0-0.62255,0.002-0.93016,0.002,0.30761,0,0.61889-0.002,0.93016-0.002z"></path><path fill-rule="nonzero" d="m256.32,90.37c-1.2427,0.005-2.4829,0.01-3.7048,0.0125,1.2219-0.002,2.4634-0.007,3.7048-0.0125z"></path><path fill-rule="nonzero" d="m276.02,90.25h0.001c-3.3118,0.0269-11.49,0.0879-19.646,0.11963,8.1518-0.0292,16.332-0.0927,19.645-0.11963z"></path><path fill-rule="nonzero" d="m277.88,88.722s1.2488-6.106,1.2488-6.106-1.25,6.1108-1.25,6.1108c0-0.002,0.001-0.002,0.001-0.005z"></path><path fill-rule="nonzero" d="m251.1,90.387h-0.81054,0.81054z"></path><path fill-rule="nonzero" d="m248.81,90.389h-1.0962,1.0962z"></path><path fill-rule="nonzero" d="m249.97,90.387h-0.86426,0.86426z"></path><path fill-rule="nonzero" d="m25.344,63.417s2.3852-10.574,2.3852-10.574-2.727,12.087-2.727,12.087-2.6172,12.312-2.6172,12.312,2.2937-10.793,2.2937-10.793c0.177-0.83497,0.4773-2.1997,0.66529-3.0322z"></path><path fill-rule="nonzero" d="m53.894,18.793h-16.864c-0.85326,0-1.7041,0.68115-1.8945,1.5112,0,0-1.5991,7.0581-1.5991,7.0581s-1.5991,7.0606-1.5991,7.0606c-0.18799,0.83008,0.35523,1.5112,1.2085,1.5112h16.995c0.85205,0,1.6992-0.68115,1.8823-1.5137,0,0,1.5454-7.0581,1.5454-7.0581s1.5454-7.0532,1.5454-7.0532v-0.002c0.18189-0.83253-0.36621-1.5137-1.2195-1.5137z"></path><path fill-rule="nonzero" d="M50.224,42.272v-0.002s-4.9463,22.883-4.9463,22.883,4.9463-22.881,4.9463-22.881z"></path><path fill-rule="nonzero" d="m1.2338,118.09s8.501,0.10988,13.905,0.10988c-4.1052,0-10.885-0.0756-13.912-0.11225,0.003,0,0.005,0.002,0.008,0.002z"></path><path fill-rule="nonzero" d="m30.114,42.269s-2.3877,10.574-2.3877,10.574,2.3877-10.574,2.3877-10.574z"></path><path fill-rule="nonzero" d="m49.004,40.756h-16.997c-0.85205,0-1.7041,0.68117-1.8921,1.5137,0,0-2.3877,10.574-2.3877,10.574s-2.3852,10.574-2.3852,10.574c-0.18799,0.83253-0.48829,2.1973-0.66529,3.0322,0,0-2.2937,10.793-2.2937,10.793s-2.2925,10.793-2.2925,10.793c-0.17822,0.83252-0.54443,2.1777-0.81787,2.9858,0,0-3.175,9.4482-8.5132,9.3408-0.22705-0.005-0.448-0.007-0.6665-0.0125-2.5867-0.0489-4.6191-0.0855-4.6191-0.0855h-0.004c-0.85083-0.0125-1.7066,0.65185-1.9055,1.4795,0,0-1.7627,7.4097-1.7627,7.4097s-1.7603,7.4072-1.7603,7.4072c-0.19775,0.82762,0.33692,1.5112,1.1841,1.5259,3.0274,0.0366,9.8071,0.11225,13.912,0.11225,13.334,0,20.363-7.3877,24.869-28.647,0,0,5.2734-24.399,5.2734-24.399s4.9463-22.883,4.9463-22.883c0.17945-0.83251-0.3711-1.5137-1.2232-1.5137z"></path><path fill-rule="nonzero" d="m290.45,89.525c-0.85205,0-1.405-0.6836-1.2256-1.5186,0,0,12.786-59.89,12.786-59.89"></path><path fill-rule="nonzero" d="m308.22,88.004s5.1709-25.562,5.1709-25.562-5.1709,25.562-5.1709,25.562z"></path><path fill-rule="nonzero" d="m289.41,88.766c-0.10375-0.41749-0.0428-1.4404,0.13793-2.2754,0,0,6.0681-28.428,6.0681-28.428s-6.3928,29.944-6.3928,29.944c-0.17944,0.83495,0.37354,1.5186,1.2256,1.5186h1.5528c-0.85328,0-2.489-0.3418-2.5916-0.75927z"></path><path fill-rule="nonzero" d="m307.21,89.183c-0.46388,0.18799-1.543,0.3418-2.3962,0.3418h1.5527c0.85205,0,1.6894-0.6836,1.8579-1.521,0,0,0.30761-1.5186,0.30761-1.5186-0.16967,0.83496-0.85692,2.5098-1.322,2.6978z"></path><path fill-rule="nonzero" d="m310.81,75.223s2.2827-11.282,2.2827-11.282c-0.001,0.007-0.002,0.0171-0.004,0.022,0,0-2.279,11.26-2.279,11.26z"></path><path fill-rule="nonzero" d="m361.26,32.128s0.70434,2.9102,0.70434,2.9102c0.1941,0.83251-0.34424,1.5088-1.1951,1.5112"></path><path fill-rule="nonzero" d="m308.53,86.486s2.2766-11.262,2.2766-11.262-2.2766,11.262-2.2766,11.262z"></path><path fill-rule="nonzero" d="m360.56,29.147s0.69703,2.981,0.69703,2.981-0.69703-2.981-0.69703-2.981z"></path><path fill-rule="nonzero" d="m313.09,63.942c0.16969-0.83496,0.45045-2.1875,0.62746-3.0151,0,0,2.4377-11.421,2.4377-11.421s-2.7612,12.937-2.7612,12.937-0.30397,1.499-0.30397,1.499z"></path><path fill-rule="nonzero" d="m302.22,27.135c-0.16967,0.80567-0.38696,1.8237-0.53101,2.4976,0,0-6.0681,28.43-6.0681,28.43s6.3928-29.946,6.3928-29.946,0.2063-0.98145,0.2063-0.98145z"></path><path fill-rule="nonzero" d="m361.96,35.038s-0.70434-2.9102-0.70434-2.9102-0.69703-2.981-0.69703-2.981-0.35278-1.5088-0.35278-1.5088c-1.3806-5.3638-5.4334-8.4595-14.233-8.4595,0,0-13.7-0.0146-13.7-0.0146s-12.617-0.0146-12.617-0.0146h-14.197c-0.85205,0-1.6956,0.68115-1.8713,1.5161h-0.001s-0.62743,2.9663-0.62743,2.9663-0.74096,3.5034-0.74096,3.5034-0.2063,0.98145-0.2063,0.98145-6.3928,29.946-6.3928,29.946-6.0681,28.428-6.0681,28.428c-0.18065,0.83496-0.24169,1.8579-0.13792,2.2754,0.1025,0.41747,1.7383,0.75927,2.5915,0.75927h12.808c0.85327,0,1.9324-0.15381,2.3962-0.3418,0.46508-0.18799,1.1523-1.8628,1.322-2.6978,0,0,2.2766-11.262,2.2766-11.262s2.279-11.26,2.279-11.26c0.001-0.005,0.002-0.0146,0.004-0.022,0,0,0.30396-1.499,0.30396-1.499s2.7612-12.937,2.7612-12.937,2.439-11.426,2.439-11.426c0.18068-0.83007,1.0205-1.5088,1.8713-1.5112,0,0,40.3-0.0195,40.3-0.0195,0.85083-0.002,1.3892-0.67872,1.1951-1.5112z"></path><path fill-rule="nonzero" d="m413.84,8.7244c-0.85326,0.006-2.2485,0.0113-3.1018,0.0113h-12.899c-0.85328,0-1.9458,0.57618-2.4268,1.2805,0,0-28.523,41.787-28.523,41.787-0.48218,0.70557-1.0315,0.60059-1.2207-0.22949,0,0-2.0984-9.2065-2.0984-9.2065-0.18921-0.83252-1.0437-1.5112-1.8958-1.5112h-18.337c-0.85327,0-1.3586,0.66895-1.1255,1.4893,0,0,8.2166,28.784,8.2166,28.784,0.23437,0.82032,0.25147,2.168,0.0403,2.9932,0,0-3.5815,13.931-3.5815,13.931-0.2124,0.82764,0.3125,1.5039,1.1658,1.5039h18.123c0.85205,0,1.7236-0.67627,1.9348-1.5039,0,0,3.5828-13.931,3.5828-13.931,0.21119-0.82519,0.80445-2.0605,1.3184-2.7417,0,0,46.306-61.459,46.306-61.459,0.51393-0.68115,0.2356-1.2354-0.61645-1.2292,0,0-4.8608,0.0317-4.8608,0.0317z"></path><path fill-rule="nonzero" d="m268.16,44.774s-0.001-0.0171-0.001-0.0171c-0.10737,0.92528-0.96069,1.604-1.8128,1.604h-23.248c-0.80323,0-1.2122-0.54688-1.0938-1.2207,0.007-0.0195,0.01-0.0366,0.022-0.0537,0,0-0.008,0.002-0.0146,0.007,0.005-0.0269,0.005-0.0512,0.0125-0.0781,0,0,0.044-0.16358,0.10625-0.39552,2.2204-5.9033,6.7432-9.7778,15.243-9.7778,9.5691,0,11.437,4.6753,10.787,9.9316zm-6.82-26.834c-29.841,0-36.912,18.113-40.879,36.394-3.9673,18.633-3.6255,36.055,27.253,36.055h1.0962c0.0976-0.002,0.19777-0.002,0.29542-0.002h1.9922c0.11963-0.002,0.23927-0.002,0.36133-0.002,0.30762,0,0.6189-0.002,0.93017-0.002h0.21852c1.2219-0.002,2.4622-0.008,3.7048-0.0125h0.0623c8.1555-0.0317,16.334-0.0927,19.647-0.11962,0.84717-0.0125,1.676-0.6958,1.8506-1.5234,0,0,1.25-6.1108,1.25-6.1108s0.24293-1.189,0.24293-1.189,1.4917-7.2876,1.4917-7.2876c0.1709-0.83496-0.38696-1.5186-1.2402-1.5186h-27.761c-11.041,0-14.32-2.9346-13.112-11.56h44.377s-0.004,0.005-0.004,0.005c0.0113,0,0.0208-0.005,0.0305-0.005,0.70556-0.0125,1.3574-0.49804,1.6162-1.145,0.0489-0.1245,0.0904-0.25391,0.10737-0.38818,0,0-0.005,0.005-0.005,0.005,6.5894-24.854,4.6997-41.592-23.528-41.592z"></path><path fill-rule="nonzero" d="m120.3,44.679s-0.41993,1.4868-0.41993,1.4868c0,0.005-0.001,0.005-0.001,0.005s-3.3508,11.875-3.3508,11.875-3.3496,11.873-3.3496,11.873c-0.23193,0.82031-1.1182,1.4917-1.9727,1.4917h-17.736c-13.453,0-16.729-10.522-13.453-26.042,3.2752-15.874,9.6973-25.742,22.938-26.741,18.094-1.3648,21.714,11.362,17.345,26.052zm12.163,25.818s8.3618-20.303,10.261-32.031c2.6-15.699-5.26-38.466-35.62-38.466-30.189,0-43.297,21.737-48.299,45.367-5.0012,23.801,1.5515,44.675,31.567,44.504,0,0,23.679-0.0879,23.679-0.0879s22.131-0.0806,22.131-0.0806c0.85205-0.007,1.7236-0.6836,1.9409-1.5064,0,0,3.855-14.705,3.855-14.705,0.21485-0.8252-0.30639-1.5039-1.1584-1.5088,0,0-3.6951-0.022-3.6951-0.022s-3.6938-0.022-3.6938-0.022c-0.7251-0.005-1.1401-0.47364-1.0522-1.0962,0.0159-0.11225,0.0415-0.22705,0.0904-0.34668z"></path><path fill-rule="nonzero" d="m281.9,56.908c0,0.56153-0.45532,1.0181-1.0181,1.0181-0.56152,0-1.0181-0.45654-1.0181-1.0181,0-0.56152,0.45655-1.0156,1.0181-1.0156,0.56274,0,1.0181,0.4541,1.0181,1.0156z"></path></symbol><symbol id="js" xmlns="http://www.w3.org/2000/svg" viewBox="0 0 630 630"><rect width="630" height="630"></rect><path style="fill:#ffffff" d="m423.2 492.19c12.69 20.72 29.2 35.95 58.4 35.95 24.53 0 40.2-12.26 40.2-29.2 0-20.3-16.1-27.49-43.1-39.3l-14.8-6.35c-42.72-18.2-71.1-41-71.1-89.2 0-44.4 33.83-78.2 86.7-78.2 37.64 0 64.7 13.1 84.2 47.4l-46.1 29.6c-10.15-18.2-21.1-25.37-38.1-25.37-17.34 0-28.33 11-28.33 25.37 0 17.76 11 24.95 36.4 35.95l14.8 6.34c50.3 21.57 78.7 43.56 78.7 93 0 53.3-41.87 82.5-98.1 82.5-54.98 0-90.5-26.2-107.88-60.54zm-209.13 5.13c9.3 16.5 17.76 30.45 38.1 30.45 19.45 0 31.72-7.61 31.72-37.2v-201.3h59.2v202.1c0 61.3-35.94 89.2-88.4 89.2-47.4 0-74.85-24.53-88.81-54.075z"></path></symbol><symbol id="odnoklassniki" xmlns="http://www.w3.org/2000/svg" x="0px" y="0px" width="95.481px" height="95.481px" viewBox="0 0 95.481 95.481" xml:space="preserve"><path d="M43.041,67.254c-7.402-0.772-14.076-2.595-19.79-7.064c-0.709-0.556-1.441-1.092-2.088-1.713
		c-2.501-2.402-2.753-5.153-0.774-7.988c1.693-2.426,4.535-3.075,7.489-1.682c0.572,0.27,1.117,0.607,1.639,0.969
		c10.649,7.317,25.278,7.519,35.967,0.329c1.059-0.812,2.191-1.474,3.503-1.812c2.551-0.655,4.93,0.282,6.299,2.514
		c1.564,2.549,1.544,5.037-0.383,7.016c-2.956,3.034-6.511,5.229-10.461,6.761c-3.735,1.448-7.826,2.177-11.875,2.661
		c0.611,0.665,0.899,0.992,1.281,1.376c5.498,5.524,11.02,11.025,16.5,16.566c1.867,1.888,2.257,4.229,1.229,6.425
		c-1.124,2.4-3.64,3.979-6.107,3.81c-1.563-0.108-2.782-0.886-3.865-1.977c-4.149-4.175-8.376-8.273-12.441-12.527
		c-1.183-1.237-1.752-1.003-2.796,0.071c-4.174,4.297-8.416,8.528-12.683,12.735c-1.916,1.889-4.196,2.229-6.418,1.15
		c-2.362-1.145-3.865-3.556-3.749-5.979c0.08-1.639,0.886-2.891,2.011-4.014c5.441-5.433,10.867-10.88,16.295-16.322
		C42.183,68.197,42.518,67.813,43.041,67.254z"></path><path d="M47.55,48.329c-13.205-0.045-24.033-10.992-23.956-24.218C23.67,10.739,34.505-0.037,47.84,0
		c13.362,0.036,24.087,10.967,24.02,24.478C71.792,37.677,60.889,48.375,47.55,48.329z M59.551,24.143
		c-0.023-6.567-5.253-11.795-11.807-11.801c-6.609-0.007-11.886,5.316-11.835,11.943c0.049,6.542,5.324,11.733,11.896,11.709
		C54.357,35.971,59.573,30.709,59.551,24.143z"></path></symbol><symbol id="phone" version="1.1" xmlns="http://www.w3.org/2000/svg" x="0px" y="0px" viewBox="0 0 473.806 473.806" style="enable-background:new 0 0 473.806 473.806;" xml:space="preserve"><g><path d="M374.456,293.506c-9.7-10.1-21.4-15.5-33.8-15.5c-12.3,0-24.1,5.3-34.2,15.4l-31.6,31.5c-2.6-1.4-5.2-2.7-7.7-4
		c-3.6-1.8-7-3.5-9.9-5.3c-29.6-18.8-56.5-43.3-82.3-75c-12.5-15.8-20.9-29.1-27-42.6c8.2-7.5,15.8-15.3,23.2-22.8
		c2.8-2.8,5.6-5.7,8.4-8.5c21-21,21-48.2,0-69.2l-27.3-27.3c-3.1-3.1-6.3-6.3-9.3-9.5c-6-6.2-12.3-12.6-18.8-18.6
		c-9.7-9.6-21.3-14.7-33.5-14.7s-24,5.1-34,14.7c-0.1,0.1-0.1,0.1-0.2,0.2l-34,34.3c-12.8,12.8-20.1,28.4-21.7,46.5
		c-2.4,29.2,6.2,56.4,12.8,74.2c16.2,43.7,40.4,84.2,76.5,127.6c43.8,52.3,96.5,93.6,156.7,122.7c23,10.9,53.7,23.8,88,26
		c2.1,0.1,4.3,0.2,6.3,0.2c23.1,0,42.5-8.3,57.7-24.8c0.1-0.2,0.3-0.3,0.4-0.5c5.2-6.3,11.2-12,17.5-18.1c4.3-4.1,8.7-8.4,13-12.9
		c9.9-10.3,15.1-22.3,15.1-34.6c0-12.4-5.3-24.3-15.4-34.3L374.456,293.506z M410.256,398.806
		C410.156,398.806,410.156,398.906,410.256,398.806c-3.9,4.2-7.9,8-12.2,12.2c-6.5,6.2-13.1,12.7-19.3,20
		c-10.1,10.8-22,15.9-37.6,15.9c-1.5,0-3.1,0-4.6-0.1c-29.7-1.9-57.3-13.5-78-23.4c-56.6-27.4-106.3-66.3-147.6-115.6
		c-34.1-41.1-56.9-79.1-72-119.9c-9.3-24.9-12.7-44.3-11.2-62.6c1-11.7,5.5-21.4,13.8-29.7l34.1-34.1c4.9-4.6,10.1-7.1,15.2-7.1
		c6.3,0,11.4,3.8,14.6,7c0.1,0.1,0.2,0.2,0.3,0.3c6.1,5.7,11.9,11.6,18,17.9c3.1,3.2,6.3,6.4,9.5,9.7l27.3,27.3
		c10.6,10.6,10.6,20.4,0,31c-2.9,2.9-5.7,5.8-8.6,8.6c-8.4,8.6-16.4,16.6-25.1,24.4c-0.2,0.2-0.4,0.3-0.5,0.5
		c-8.6,8.6-7,17-5.2,22.7c0.1,0.3,0.2,0.6,0.3,0.9c7.1,17.2,17.1,33.4,32.3,52.7l0.1,0.1c27.6,34,56.7,60.5,88.8,80.8
		c4.1,2.6,8.3,4.7,12.3,6.7c3.6,1.8,7,3.5,9.9,5.3c0.4,0.2,0.8,0.5,1.2,0.7c3.4,1.7,6.6,2.5,9.9,2.5c8.3,0,13.5-5.2,15.2-6.9
		l34.2-34.2c3.4-3.4,8.8-7.5,15.1-7.5c6.2,0,11.3,3.9,14.4,7.3c0.1,0.1,0.1,0.1,0.2,0.2l55.1,55.1
		C420.456,377.706,420.456,388.206,410.256,398.806z"></path><path d="M256.056,112.706c26.2,4.4,50,16.8,69,35.8s31.3,42.8,35.8,69c1.1,6.6,6.8,11.2,13.3,11.2c0.8,0,1.5-0.1,2.3-0.2
		c7.4-1.2,12.3-8.2,11.1-15.6c-5.4-31.7-20.4-60.6-43.3-83.5s-51.8-37.9-83.5-43.3c-7.4-1.2-14.3,3.7-15.6,11
		S248.656,111.506,256.056,112.706z"></path><path d="M473.256,209.006c-8.9-52.2-33.5-99.7-71.3-137.5s-85.3-62.4-137.5-71.3c-7.3-1.3-14.2,3.7-15.5,11
		c-1.2,7.4,3.7,14.3,11.1,15.6c46.6,7.9,89.1,30,122.9,63.7c33.8,33.8,55.8,76.3,63.7,122.9c1.1,6.6,6.8,11.2,13.3,11.2
		c0.8,0,1.5-0.1,2.3-0.2C469.556,223.306,474.556,216.306,473.256,209.006z"></path></g></symbol><symbol id="plus" version="1.1" xmlns="http://www.w3.org/2000/svg" x="0px" y="0px" viewBox="0 0 31.444 31.444" style="enable-background:new 0 0 31.444 31.444;" xml:space="preserve"><path d="M1.119,16.841c-0.619,0-1.111-0.508-1.111-1.127c0-0.619,0.492-1.111,1.111-1.111h13.475V1.127
	C14.595,0.508,15.103,0,15.722,0c0.619,0,1.111,0.508,1.111,1.127v13.476h13.475c0.619,0,1.127,0.492,1.127,1.111
	c0,0.619-0.508,1.127-1.127,1.127H16.833v13.476c0,0.619-0.492,1.127-1.111,1.127c-0.619,0-1.127-0.508-1.127-1.127V16.841H1.119z"></path></symbol><symbol id="react" xmlns="http://www.w3.org/2000/svg" viewBox="170 40 500 500"><path d="M666.3,296.5c0-32.5-40.7-63.3-103.1-82.4c14.4-63.6,8-114.2-20.2-130.4c-6.5-3.8-14.1-5.6-22.4-5.6v22.3
		c4.6,0,8.3,0.9,11.4,2.6c13.6,7.8,19.5,37.5,14.9,75.7c-1.1,9.4-2.9,19.3-5.1,29.4c-19.6-4.8-41-8.5-63.5-10.9
		c-13.5-18.5-27.5-35.3-41.6-50c32.6-30.3,63.2-46.9,84-46.9l0-22.3c0,0,0,0,0,0c-27.5,0-63.5,19.6-99.9,53.6
		c-36.4-33.8-72.4-53.2-99.9-53.2v22.3c20.7,0,51.4,16.5,84,46.6c-14,14.7-28,31.4-41.3,49.9c-22.6,2.4-44,6.1-63.6,11
		c-2.3-10-4-19.7-5.2-29c-4.7-38.2,1.1-67.9,14.6-75.8c3-1.8,6.9-2.6,11.5-2.6l0-22.3c0,0,0,0,0,0c-8.4,0-16,1.8-22.6,5.6
		c-28.1,16.2-34.4,66.7-19.9,130.1c-62.2,19.2-102.7,49.9-102.7,82.3c0,32.5,40.7,63.3,103.1,82.4c-14.4,63.6-8,114.2,20.2,130.4
		c6.5,3.8,14.1,5.6,22.5,5.6c27.5,0,63.5-19.6,99.9-53.6c36.4,33.8,72.4,53.2,99.9,53.2c8.4,0,16-1.8,22.6-5.6
		c28.1-16.2,34.4-66.7,19.9-130.1C625.8,359.7,666.3,328.9,666.3,296.5z M536.1,229.8c-3.7,12.9-8.3,26.2-13.5,39.5
		c-4.1-8-8.4-16-13.1-24c-4.6-8-9.5-15.8-14.4-23.4C509.3,224,523,226.6,536.1,229.8z M490.3,336.3c-7.8,13.5-15.8,26.3-24.1,38.2
		c-14.9,1.3-30,2-45.2,2c-15.1,0-30.2-0.7-45-1.9c-8.3-11.9-16.4-24.6-24.2-38c-7.6-13.1-14.5-26.4-20.8-39.8
		c6.2-13.4,13.2-26.8,20.7-39.9c7.8-13.5,15.8-26.3,24.1-38.2c14.9-1.3,30-2,45.2-2c15.1,0,30.2,0.7,45,1.9
		c8.3,11.9,16.4,24.6,24.2,38c7.6,13.1,14.5,26.4,20.8,39.8C504.7,309.8,497.8,323.2,490.3,336.3z M522.6,323.3
		c5.4,13.4,10,26.8,13.8,39.8c-13.1,3.2-26.9,5.9-41.2,8c4.9-7.7,9.8-15.6,14.4-23.7C514.2,339.4,518.5,331.3,522.6,323.3z
		 M421.2,430c-9.3-9.6-18.6-20.3-27.8-32c9,0.4,18.2,0.7,27.5,0.7c9.4,0,18.7-0.2,27.8-0.7C439.7,409.7,430.4,420.4,421.2,430z
		 M346.8,371.1c-14.2-2.1-27.9-4.7-41-7.9c3.7-12.9,8.3-26.2,13.5-39.5c4.1,8,8.4,16,13.1,24C337.1,355.7,341.9,363.5,346.8,371.1z
		 M420.7,163c9.3,9.6,18.6,20.3,27.8,32c-9-0.4-18.2-0.7-27.5-0.7c-9.4,0-18.7,0.2-27.8,0.7C402.2,183.3,411.5,172.6,420.7,163z
		 M346.7,221.9c-4.9,7.7-9.8,15.6-14.4,23.7c-4.6,8-8.9,16-13,24c-5.4-13.4-10-26.8-13.8-39.8C318.6,226.7,332.4,224,346.7,221.9z
		 M256.2,347.1c-35.4-15.1-58.3-34.9-58.3-50.6c0-15.7,22.9-35.6,58.3-50.6c8.6-3.7,18-7,27.7-10.1c5.7,19.6,13.2,40,22.5,60.9
		c-9.2,20.8-16.6,41.1-22.2,60.6C274.3,354.2,264.9,350.8,256.2,347.1z M310,490c-13.6-7.8-19.5-37.5-14.9-75.7
		c1.1-9.4,2.9-19.3,5.1-29.4c19.6,4.8,41,8.5,63.5,10.9c13.5,18.5,27.5,35.3,41.6,50c-32.6,30.3-63.2,46.9-84,46.9
		C316.8,492.6,313,491.7,310,490z M547.2,413.8c4.7,38.2-1.1,67.9-14.6,75.8c-3,1.8-6.9,2.6-11.5,2.6c-20.7,0-51.4-16.5-84-46.6
		c14-14.7,28-31.4,41.3-49.9c22.6-2.4,44-6.1,63.6-11C544.3,394.8,546.1,404.5,547.2,413.8z M585.7,347.1c-8.6,3.7-18,7-27.7,10.1
		c-5.7-19.6-13.2-40-22.5-60.9c9.2-20.8,16.6-41.1,22.2-60.6c9.9,3.1,19.3,6.5,28.1,10.2c35.4,15.1,58.3,34.9,58.3,50.6
		C644,312.2,621.1,332.1,585.7,347.1z"></path><polygon points="320.8,78.4 320.8,78.4 320.8,78.4"></polygon><circle cx="420.9" cy="296.5" r="45.7"></circle><polygon points="520.5,78.1 520.5,78.1 520.5,78.1"></polygon></symbol><symbol id="sass" xmlns="http://www.w3.org/2000/svg" viewBox="0 0 512 512" style="enable-background:new 0 0 512 512;" xml:space="preserve"><path d="M446.767,284.975c-7.764,2.936-7.45,2.988-11.557-4.493c-5.245-9.529-8.035-19.55-8.276-30.448
	c-0.199-9.352,2.361-18.045,5.58-26.572c2.57-6.781-0.773-9.174-6.646-9.791c-4.274-0.439-8.683-0.397-12.967,0.042
	c-11.139,1.139-12.236,2.1-15.193,12.915c-1.755,6.416-3.156,12.884-6.071,18.975c-7.189,14.994-15.36,29.435-23.74,43.771
	c-1.505,2.581-2.748,5.36-4.869,7.565c-6.071-9.091-8.359-19.132-8.871-29.665c-0.512-10.397,2.675-20.062,6.175-29.623
	c1.181-3.218,0.199-5.214-2.581-6.604c-1.233-0.616-2.612-1.191-3.96-1.296c-7.147-0.564-14.273-0.481-21.243,1.473
	c-3.135,0.867-5.183,2.623-5.883,6.144c-1.358,6.886-3.479,13.573-6.343,20.01c-7.941,17.826-15.83,35.683-23.761,53.52
	c-6.896,15.496-13.688,31.033-21.859,45.913c-0.575,1.055-1.055,2.884-2.497,2.518c-1.463-0.366-0.951-2.163-1.014-3.396
	c-0.47-8.777,1.923-17.147,3.96-25.527c3.229-13.26,6.76-26.457,10.188-39.675c0.982-3.793-0.669-6.343-3.814-8.161
	c-4.524-2.602-9.028-2.727-13.928,0.919c0.669-5.392,0.961-10.125,0.731-14.858c-0.522-10.553-5.413-17.418-13.928-19.007
	c-6.217-1.16-12.1,0.648-17.659,3.281c-12.957,6.134-23.374,15.381-32.131,26.603c-1.024,1.306-2.058,2.508-3.542,3.312
	c-16.436,8.955-32.862,17.91-49.256,26.948c-1.797,1.003-2.957,0.721-4.253-0.669c-8.255-8.85-17.836-16.154-27.324-23.562
	c-13.26-10.365-26.979-20.187-38.421-32.684c-6.687-7.314-12.267-15.329-15.057-25.004c-4.556-15.82-1.149-30.553,6.437-44.554
	c8.976-16.562,22.288-29.351,36.968-40.741c23.312-18.077,48.88-32.434,75.828-44.251c30.177-13.218,61.482-21.734,94.824-20.449
	c13.208,0.512,26.028,2.8,37.794,9.268c8.328,4.577,13.845,11.191,15.402,20.898c1.829,11.368-0.899,21.87-5.945,31.828
	c-11.274,22.246-29.194,38.003-50.375,50.343c-17.638,10.271-36.665,16.792-56.801,20.208c-11.128,1.891-22.298,3.03-33.489,1.327
	c-12.842-1.954-24.712-6.248-33.499-16.593c-1.014-1.191-2.299-2.017-4.023-1.181c-1.766,0.857-1.63,2.424-1.463,3.929
	c0.125,1.034,0.408,2.079,0.773,3.062c2.351,6.343,6.75,11.128,11.901,15.308c13.396,10.898,29.268,14.096,45.934,14.42
	c16.311,0.324,32.371-1.745,48.264-5.548c35.85-8.568,65.881-26.154,87.803-56.289c13.103-18.014,21.4-37.867,20.668-60.583
	c-0.47-14.409-5.319-27.136-15.82-37.48c-12.487-12.278-27.982-18.453-44.607-22.162c-18.516-4.117-37.219-4.702-56.111-2.445
	c-16.436,1.964-32.496,5.329-48.128,10.71c-23.918,8.244-47.02,18.369-69.13,30.678c-22.653,12.601-44.001,27.032-62.725,45.108
	c-16.572,15.997-30.814,33.646-38.839,55.557c-3.427,9.383-5.893,19.028-3.594,29.174c2.947,13.061,9.383,24.367,17.847,34.565
	c12.8,15.444,28.505,27.606,44.701,39.225c13.009,9.341,26.624,17.847,39.121,27.888c3.542,2.842,3.521,2.842-0.648,5.026
	c-4.869,2.539-9.791,4.984-14.576,7.69C91.951,342.695,73.3,354.523,58.075,370.96c-7.492,8.098-12.581,17.189-14.952,27.282
	c12.392,18.516,27.136,35.318,43.802,49.977c28.432-2.215,50.197-17.011,66.278-41.482c7.764-11.818,11.4-25.192,12.769-39.299
	c1.202-12.434-0.063-24.472-3.72-36.342c-0.637-2.09-3.009-4.169-2.079-6.008c0.867-1.693,3.48-2.55,5.402-3.657
	c7.753-4.504,15.527-8.944,23.51-13.531c0.345,1.714-0.324,2.717-0.616,3.803c-4.577,16.792-7.764,33.719-4.284,51.169
	c2.163,10.867,5.768,21.096,12.622,30.093c7.053,9.258,22.8,8.202,29.194-0.251c6.071-8.025,10.094-17.074,14.284-26.081
	c2.299-4.932,4.409-9.947,6.604-14.932c-0.408,5.998-0.387,11.849-0.167,17.68c0.219,5.747,1.139,11.421,4.127,16.499
	c3.594,6.102,10.355,7.879,16.635,4.618c6.625-3.438,11.139-9.101,14.649-15.245c15.057-26.425,29.027-53.415,40.594-81.596
	c2.466-5.987,4.995-11.964,7.785-18.62c0.428,2.184,0.711,3.521,0.972,4.859c2.57,13.427,7.147,26.133,13.772,38.076
	c1.421,2.56,1.264,4.326-0.533,6.781c-6.102,8.307-12.79,16.123-19.383,24.022c-5.538,6.646-11.463,12.999-16.144,20.313
	c-4.2,6.583-1.787,13.322,5.204,14.817c2.152,0.46,4.42,0.596,6.625,0.564c12.215-0.146,23.489-3.793,33.991-9.77
	c14.137-8.056,22.518-19.864,22.131-36.676c-0.178-7.649-2.247-14.994-5.329-22.006c-0.679-1.557-0.711-2.685,0.303-4.148
	c9.791-14.023,18.442-28.724,26.394-43.854c1.411-2.664,2.403-5.622,4.681-8.223c0.303,1.055,0.543,1.714,0.679,2.393
	c2.529,12.539,5.935,24.795,12.33,35.986c1.755,3.062,0.878,4.618-1.546,6.666c-8.349,7.095-15.391,15.37-20.919,24.848
	c-4.305,7.377-7.252,15.255-7.22,23.897c0.031,9.613,7.387,15.276,16.76,13.019c9.77-2.341,18.829-6.322,26.958-12.267
	c17.711-12.967,22.904-26.645,17.356-45.735c-2.173-7.513-2.132-7.387,5.402-9.665c16.478-4.974,33.196-5.183,49.998-2.445
	c1.902,0.313,3.783,0.669,5.642,1.076c0.982-5.966,1.755-12.006,2.299-18.119C489.441,274.192,467.978,276.919,446.767,284.975z
	 M98.586,419.401c-4.775,1.693-9.738,2.414-14.817,2.017c-6.322-0.502-10.334-4.963-10.742-11.672
	c-0.46-7.732,1.829-14.712,5.214-21.504c6.154-12.33,16.488-20.699,27.032-28.912c10.25-7.993,21.264-14.817,32.402-21.452
	c3.375-2.006,3.427-1.985,4.2,2.038c1.003,5.162,1.902,10.334,1.567,15.026C144.321,383.08,123.883,410.446,98.586,419.401z
	 M251.956,277.514c-1.776,11.86-5.653,23.155-9.78,34.314c-5.622,15.235-11.097,30.542-18.171,45.192
	c-1.62,3.375-3.323,6.729-5.945,9.477c-2.476,2.602-4.671,2.299-6.384-0.878c-3.344-6.207-2.926-13.113-3.469-18.129
	c0.157-25.161,8.6-45.725,22.507-64.209c3.887-5.151,8.85-9.341,15.423-11.024C250.598,271.12,252.656,272.917,251.956,277.514z
	 M349.341,352.005c-4.765,8.234-11.63,14.221-20.052,18.484c-0.899,0.449-2.058,1.243-2.873,0.188
	c-0.773-0.993,0.47-1.651,1.034-2.278c8.37-9.143,16.635-18.359,24.085-28.275c0.115-0.157,0.397-0.178,1.034-0.449
	C352.496,344.263,351.493,348.296,349.341,352.005z M407.134,351.65c-1.243,0.585-2.685,1.682-3.897,0.742
	c-1.337-1.034-0.805-2.863-0.397-4.263c1.902-6.384,4.462-12.497,7.993-18.192c2.967-4.796,6.646-8.986,10.689-12.894
	c1.63-1.567,2.361-1.379,2.915,0.878c0.575,2.309,0.627,4.618,0.669,6.969C425.002,337.753,418.471,346.311,407.134,351.65z"></path></symbol><symbol id="shopping" xmlns="http://www.w3.org/2000/svg" viewBox="0 0 260.293 260.293"><g><path d="M258.727,57.459c-1.42-1.837-3.612-2.913-5.934-2.913H62.004l-8.333-32.055c-0.859-3.306-3.843-5.613-7.259-5.613H7.5
		c-4.142,0-7.5,3.358-7.5,7.5c0,4.142,3.358,7.5,7.5,7.5h33.112l8.333,32.055c0,0.001,0,0.001,0.001,0.002l29.381,112.969
		c0.859,3.305,3.843,5.612,7.258,5.612h137.822c3.415,0,6.399-2.307,7.258-5.612l29.385-112.971
		C260.636,61.687,260.147,59.295,258.727,57.459z M117.877,167.517H91.385l-5.892-22.652h32.384V167.517z M117.877,129.864H81.592
		l-5.895-22.667h42.18V129.864z M117.877,92.197H71.795l-5.891-22.651h51.973V92.197z M176.119,167.517h-43.242v-22.652h43.242
		V167.517z M176.119,129.864h-43.242v-22.667h43.242V129.864z M176.119,92.197h-43.242V69.546h43.242V92.197z M217.609,167.517
		h-26.49v-22.652h32.382L217.609,167.517z M227.403,129.864h-36.284v-22.667h42.18L227.403,129.864z M237.201,92.197h-46.081V69.546
		h51.974L237.201,92.197z"></path><path d="M105.482,188.62c-15.106,0-27.396,12.29-27.396,27.395c0,15.108,12.29,27.4,27.396,27.4
		c15.105,0,27.395-12.292,27.395-27.4C132.877,200.91,120.588,188.62,105.482,188.62z M105.482,228.415
		c-6.835,0-12.396-5.563-12.396-12.4c0-6.835,5.561-12.395,12.396-12.395c6.834,0,12.395,5.561,12.395,12.395
		C117.877,222.853,112.317,228.415,105.482,228.415z"></path><path d="M203.512,188.62c-15.104,0-27.392,12.29-27.392,27.395c0,15.108,12.288,27.4,27.392,27.4
		c15.107,0,27.396-12.292,27.396-27.4C230.908,200.91,218.618,188.62,203.512,188.62z M203.512,228.415
		c-6.833,0-12.392-5.563-12.392-12.4c0-6.835,5.559-12.395,12.392-12.395c6.836,0,12.396,5.561,12.396,12.395
		C215.908,222.853,210.347,228.415,203.512,228.415z"></path></g></symbol><symbol id="power" xmlns="http://www.w3.org/2000/svg" viewBox="0 0 489.888 489.888" style="enable-background:new 0 0 489.888 489.888;" xml:space="preserve"><path d="M25.383,290.5c-7.2-77.5,25.9-147.7,80.8-192.3c21.4-17.4,53.4-2.5,53.4,25l0,0c0,10.1-4.8,19.4-12.6,25.7
			c-38.9,31.7-62.3,81.7-56.6,136.9c7.4,71.9,65,130.1,136.8,138.1c93.7,10.5,173.3-62.9,173.3-154.5c0-48.6-22.5-92.1-57.6-120.6
			c-7.8-6.3-12.5-15.6-12.5-25.6l0,0c0-27.2,31.5-42.6,52.7-25.6c50.2,40.5,82.4,102.4,82.4,171.8c0,126.9-107.8,229.2-236.7,219.9
			C122.183,481.8,35.283,396.9,25.383,290.5z M244.883,0c-18,0-32.5,14.6-32.5,32.5v149.7c0,18,14.6,32.5,32.5,32.5
			s32.5-14.6,32.5-32.5V32.5C277.383,14.6,262.883,0,244.883,0z"></path></symbol><symbol id="skype" xmlns="http://www.w3.org/2000/svg" x="0px" y="0px" width="430.123px" height="430.123px" viewBox="0 0 430.123 430.123" xml:space="preserve"><path d="M412.164,246.198c1.605-10.155,2.45-20.544,2.45-31.148c0-110.215-89.342-199.555-199.56-199.555
		c-10.576,0-20.995,0.871-31.141,2.458C165.534,6.581,143.842,0,120.595,0C53.996,0,0.005,53.984,0.005,120.59
		c0,23.242,6.585,44.916,17.952,63.332c-1.573,10.172-2.439,20.528-2.439,31.132c0,110.223,89.34,199.536,199.532,199.536
		c10.585,0,21.007-0.816,31.152-2.417c18.398,11.35,40.072,17.949,63.314,17.949c66.617,0,120.602-53.998,120.602-120.602
		C430.123,286.269,423.542,264.6,412.164,246.198z M309.801,305.81c-8.442,12.153-20.843,21.65-37.047,28.479
		c-16.237,6.847-35.428,10.254-57.59,10.254c-26.562,0-48.554-4.648-65.913-14.034c-12.305-6.721-22.313-15.737-30.007-26.98
		c-7.71-11.252-11.619-22.271-11.619-33.015c0-6.338,2.417-11.85,7.122-16.344c4.754-4.527,10.877-6.796,18.104-6.796
		c5.92,0,11.005,1.783,15.145,5.316c4.109,3.532,7.556,8.667,10.375,15.443c3.379,7.85,7.049,14.412,10.954,19.648
		c3.881,5.171,9.343,9.488,16.417,12.867c6.996,3.388,16.307,5.082,27.958,5.082c15.945,0,28.831-3.449,38.693-10.253
		c9.912-6.866,14.673-15.22,14.673-25.314c0-8.051-2.567-14.445-7.831-19.43c-5.312-5.05-12.172-8.896-20.685-11.579
		c-8.546-2.711-20.02-5.586-34.399-8.615c-19.308-4.214-35.456-9.119-48.533-14.752c-13.094-5.654-23.522-13.383-31.251-23.146
		c-7.745-9.859-11.607-22.113-11.607-36.627c0-13.84,4.077-26.217,12.239-36.989c8.158-10.802,19.961-19.07,35.351-24.829
		c15.336-5.757,33.391-8.637,54.075-8.637c16.541,0,30.849,1.914,42.96,5.722c12.078,3.836,22.146,8.898,30.196,15.25
		c7.999,6.338,13.885,13.023,17.613,20.038c3.725,7.036,5.601,13.908,5.601,20.614c0,6.235-2.417,11.89-7.127,16.846
		c-4.709,4.963-10.733,7.493-17.768,7.47c-6.342,0-11.317-1.463-14.767-4.56c-3.36-2.996-6.889-7.766-10.706-14.414
		c-4.825-9.276-10.604-16.503-17.324-21.672c-6.543-5.073-17.338-7.714-32.359-7.682c-13.898,0-25.018,2.84-33.411,8.394
		c-8.445,5.643-12.482,12.19-12.501,19.861c0.014,4.807,1.396,8.86,4.177,12.326c2.824,3.498,6.753,6.529,11.803,9.084
		c5.052,2.595,10.191,4.602,15.355,6.046c5.225,1.481,13.894,3.622,25.944,6.457c15.112,3.257,28.819,6.896,41.136,10.862
		c12.293,3.986,22.784,8.793,31.451,14.52c8.736,5.71,15.564,12.99,20.438,21.783c4.909,8.807,7.354,19.564,7.354,32.222
		C322.509,279.968,318.263,293.676,309.801,305.81z"></path></symbol><symbol id="telegram" xmlns="http://www.w3.org/2000/svg" x="0px" y="0px" viewBox="0 0 26.649 26.649" style="enable-background:new 0 0 26.649 26.649;" xml:space="preserve"><path d="M26.157,1.238c-0.434-0.567-1.107-0.892-1.847-0.892c-0.478,0-0.973,0.133-1.472,0.395L1.593,11.88
		c-1.51,0.793-1.615,1.987-1.59,2.463c0.024,0.479,0.255,1.654,1.839,2.283L4.557,17.7c0.515,0.204,1.091,0.309,1.711,0.309
		c0.098,0,0.192-0.013,0.289-0.018c-0.037,0.048-0.082,0.085-0.116,0.135c-0.506,0.757-0.531,1.783-0.073,2.888
		c0.007,0.019,0.014,0.035,0.021,0.051c0.803,1.779,1.696,3.787,1.804,4.066c0.266,0.694,0.944,1.172,1.688,1.172
		c1.146,0,1.486-0.552,3.361-3.604c0.146-0.224,0.471-0.744,0.526-1.406c0.219,0.089,0.425,0.171,0.601,0.242l3.008,1.226
		c0.603,0.246,1.131,0.463,1.409,0.578c0.086,0.053,0.177,0.098,0.272,0.137c0.212,0.084,0.438,0.127,0.665,0.127
		c1.368,0,1.696-1.185,1.872-1.82c0.087-0.314,0.207-0.749,0.336-1.229l4.588-16.858C26.865,2.423,26.44,1.61,26.157,1.238z
		 M11.727,21.739c0,0-1.702,2.771-1.847,2.771c-0.004,0-0.006-0.002-0.008-0.006c-0.167-0.449-1.849-4.176-1.849-4.176
		c-0.31-0.747-0.254-1.387,0.279-1.387c0.117,0,0.257,0.031,0.421,0.099l1.306,0.679c0.218,0.149,0.456,0.278,0.718,0.381
		l0.066,0.025l0.123,0.062C11.945,20.721,12.266,20.914,11.727,21.739z M24.789,3.224l-4.586,16.858
		c-0.259,0.95-0.475,1.727-0.479,1.727c-0.004-0.002-0.009-0.02-0.009-0.023c0-0.006-0.748-0.312-1.662-0.686l-3.01-1.226
		c-0.914-0.37-2.413-0.969-3.332-1.323l-0.152-0.061l-0.562-0.292c-0.557-0.427-0.606-1.131-0.046-1.728l9.312-9.971
		c0.374-0.399,0.515-0.605,0.434-0.605c-0.064,0-0.271,0.133-0.617,0.404L8.298,15.592c-0.514,0.401-1.295,0.625-2.029,0.625
		c-0.376,0-0.741-0.06-1.052-0.183l-2.713-1.073c-0.917-0.363-0.952-1.033-0.079-1.493L23.672,2.327
		c0.245-0.128,0.46-0.188,0.638-0.188C24.767,2.139,24.975,2.539,24.789,3.224z"></path></symbol><symbol id="viber" xmlns="http://www.w3.org/2000/svg" x="0px" y="0px" viewBox="0 0 52.511 52.511" xml:space="preserve"><path d="M31.256,0H21.254C10.778,0,2.255,8.521,2.255,18.995v9.01c0,7.8,4.793,14.81,12,17.665v5.841
			c0,0.396,0.233,0.754,0.595,0.914c0.13,0.058,0.268,0.086,0.405,0.086c0.243,0,0.484-0.089,0.671-0.259L21.725,47h9.531
			c10.476,0,18.999-8.521,18.999-18.995v-9.01C50.255,8.521,41.732,0,31.256,0z M48.255,28.005C48.255,37.376,40.63,45,31.256,45
			h-9.917c-0.248,0-0.487,0.092-0.671,0.259l-4.413,3.997v-4.279c0-0.424-0.267-0.802-0.667-0.942
			C8.81,41.638,4.255,35.196,4.255,28.005v-9.01C4.255,9.624,11.881,2,21.254,2h10.002c9.374,0,16.999,7.624,16.999,16.995V28.005z"></path><path d="M39.471,30.493l-6.146-3.992c-0.672-0.437-1.472-0.585-2.255-0.423c-0.784,0.165-1.458,0.628-1.895,1.303l-0.289,0.444
			c-2.66-0.879-5.593-2.002-7.349-7.085l0.727-0.632h0c1.248-1.085,1.379-2.983,0.294-4.233l-4.808-5.531
			c-0.362-0.417-0.994-0.46-1.411-0.099l-3.019,2.624c-2.648,2.302-1.411,5.707-1.004,6.826c0.018,0.05,0.04,0.098,0.066,0.145
			c0.105,0.188,2.612,4.662,6.661,8.786c4.065,4.141,11.404,7.965,11.629,8.076c0.838,0.544,1.781,0.805,2.714,0.805
			c1.638,0,3.244-0.803,4.202-2.275l2.178-3.354C40.066,31.413,39.934,30.794,39.471,30.493z M35.91,34.142
			c-0.901,1.388-2.763,1.782-4.233,0.834c-0.073-0.038-7.364-3.835-11.207-7.75c-3.592-3.659-5.977-7.724-6.302-8.291
			c-0.792-2.221-0.652-3.586,0.464-4.556l2.265-1.968l4.152,4.776c0.369,0.424,0.326,1.044-0.096,1.411l-1.227,1.066
			c-0.299,0.26-0.417,0.671-0.3,1.049c2.092,6.798,6.16,8.133,9.13,9.108l0.433,0.143c0.433,0.146,0.907-0.021,1.155-0.403
			l0.709-1.092c0.146-0.226,0.37-0.379,0.63-0.434c0.261-0.056,0.527-0.004,0.753,0.143l5.308,3.447L35.91,34.142z"></path><path d="M28.538,16.247c-0.532-0.153-1.085,0.156-1.236,0.688c-0.151,0.531,0.157,1.084,0.688,1.235
			c1.49,0.424,2.677,1.613,3.097,3.104c0.124,0.44,0.525,0.729,0.962,0.729c0.09,0,0.181-0.012,0.272-0.037
			c0.531-0.15,0.841-0.702,0.691-1.234C32.405,18.578,30.69,16.859,28.538,16.247z"></path><path d="M36.148,22.219c0.09,0,0.181-0.012,0.272-0.037c0.532-0.15,0.841-0.703,0.691-1.234c-1.18-4.183-4.509-7.519-8.689-8.709
			c-0.531-0.153-1.084,0.158-1.235,0.689c-0.151,0.531,0.157,1.084,0.688,1.235c3.517,1,6.318,3.809,7.311,7.328
			C35.311,21.931,35.711,22.219,36.148,22.219z"></path><path d="M27.991,7.582c-0.532-0.153-1.085,0.156-1.236,0.689c-0.151,0.531,0.157,1.084,0.688,1.235
			c5.959,1.695,10.706,6.453,12.388,12.416c0.124,0.44,0.525,0.729,0.962,0.729c0.09,0,0.181-0.012,0.272-0.037
			c0.531-0.15,0.841-0.703,0.691-1.234C39.887,14.753,34.613,9.467,27.991,7.582z"></path></symbol><symbol id="vk" xmlns="http://www.w3.org/2000/svg" x="0px" y="0px" width="548.358px" height="548.358px" viewBox="0 0 548.358 548.358" xml:space="preserve"><path d="M545.451,400.298c-0.664-1.431-1.283-2.618-1.858-3.569c-9.514-17.135-27.695-38.167-54.532-63.102l-0.567-0.571
		l-0.284-0.28l-0.287-0.287h-0.288c-12.18-11.611-19.893-19.418-23.123-23.415c-5.91-7.614-7.234-15.321-4.004-23.13
		c2.282-5.9,10.854-18.36,25.696-37.397c7.807-10.089,13.99-18.175,18.556-24.267c32.931-43.78,47.208-71.756,42.828-83.939
		l-1.701-2.847c-1.143-1.714-4.093-3.282-8.846-4.712c-4.764-1.427-10.853-1.663-18.278-0.712l-82.224,0.568
		c-1.332-0.472-3.234-0.428-5.712,0.144c-2.475,0.572-3.713,0.859-3.713,0.859l-1.431,0.715l-1.136,0.859
		c-0.952,0.568-1.999,1.567-3.142,2.995c-1.137,1.423-2.088,3.093-2.848,4.996c-8.952,23.031-19.13,44.444-30.553,64.238
		c-7.043,11.803-13.511,22.032-19.418,30.693c-5.899,8.658-10.848,15.037-14.842,19.126c-4,4.093-7.61,7.372-10.852,9.849
		c-3.237,2.478-5.708,3.525-7.419,3.142c-1.715-0.383-3.33-0.763-4.859-1.143c-2.663-1.714-4.805-4.045-6.42-6.995
		c-1.622-2.95-2.714-6.663-3.285-11.136c-0.568-4.476-0.904-8.326-1-11.563c-0.089-3.233-0.048-7.806,0.145-13.706
		c0.198-5.903,0.287-9.897,0.287-11.991c0-7.234,0.141-15.085,0.424-23.555c0.288-8.47,0.521-15.181,0.716-20.125
		c0.194-4.949,0.284-10.185,0.284-15.705s-0.336-9.849-1-12.991c-0.656-3.138-1.663-6.184-2.99-9.137
		c-1.335-2.95-3.289-5.232-5.853-6.852c-2.569-1.618-5.763-2.902-9.564-3.856c-10.089-2.283-22.936-3.518-38.547-3.71
		c-35.401-0.38-58.148,1.906-68.236,6.855c-3.997,2.091-7.614,4.948-10.848,8.562c-3.427,4.189-3.905,6.475-1.431,6.851
		c11.422,1.711,19.508,5.804,24.267,12.275l1.715,3.429c1.334,2.474,2.666,6.854,3.999,13.134c1.331,6.28,2.19,13.227,2.568,20.837
		c0.95,13.897,0.95,25.793,0,35.689c-0.953,9.9-1.853,17.607-2.712,23.127c-0.859,5.52-2.143,9.993-3.855,13.418
		c-1.715,3.426-2.856,5.52-3.428,6.28c-0.571,0.76-1.047,1.239-1.425,1.427c-2.474,0.948-5.047,1.431-7.71,1.431
		c-2.667,0-5.901-1.334-9.707-4c-3.805-2.666-7.754-6.328-11.847-10.992c-4.093-4.665-8.709-11.184-13.85-19.558
		c-5.137-8.374-10.467-18.271-15.987-29.691l-4.567-8.282c-2.855-5.328-6.755-13.086-11.704-23.267
		c-4.952-10.185-9.329-20.037-13.134-29.554c-1.521-3.997-3.806-7.04-6.851-9.134l-1.429-0.859c-0.95-0.76-2.475-1.567-4.567-2.427
		c-2.095-0.859-4.281-1.475-6.567-1.854l-78.229,0.568c-7.994,0-13.418,1.811-16.274,5.428l-1.143,1.711
		C0.288,140.146,0,141.668,0,143.763c0,2.094,0.571,4.664,1.714,7.707c11.42,26.84,23.839,52.725,37.257,77.659
		c13.418,24.934,25.078,45.019,34.973,60.237c9.897,15.229,19.985,29.602,30.264,43.112c10.279,13.515,17.083,22.176,20.412,25.981
		c3.333,3.812,5.951,6.662,7.854,8.565l7.139,6.851c4.568,4.569,11.276,10.041,20.127,16.416
		c8.853,6.379,18.654,12.659,29.408,18.85c10.756,6.181,23.269,11.225,37.546,15.126c14.275,3.905,28.169,5.472,41.684,4.716h32.834
		c6.659-0.575,11.704-2.669,15.133-6.283l1.136-1.431c0.764-1.136,1.479-2.901,2.139-5.276c0.668-2.379,1-5,1-7.851
		c-0.195-8.183,0.428-15.558,1.852-22.124c1.423-6.564,3.045-11.513,4.859-14.846c1.813-3.33,3.859-6.14,6.136-8.418
		c2.282-2.283,3.908-3.666,4.862-4.142c0.948-0.479,1.705-0.804,2.276-0.999c4.568-1.522,9.944-0.048,16.136,4.429
		c6.187,4.473,11.99,9.996,17.418,16.56c5.425,6.57,11.943,13.941,19.555,22.124c7.617,8.186,14.277,14.271,19.985,18.274
		l5.708,3.426c3.812,2.286,8.761,4.38,14.853,6.283c6.081,1.902,11.409,2.378,15.984,1.427l73.087-1.14
		c7.229,0,12.854-1.197,16.844-3.572c3.998-2.379,6.373-5,7.139-7.851c0.764-2.854,0.805-6.092,0.145-9.712
		C546.782,404.25,546.115,401.725,545.451,400.298z"></path></symbol><symbol id="webpack" xmlns="http://www.w3.org/2000/svg" viewBox="0 0 128 128"><path d="M117.29 98.1L66.24 127V104.49L98 87 117.29 98.1zm3.5-3.16V34.55L102.11 45.35V84.16l18.67 10.77zM10.71 98.1l51 28.88V104.49L29.94 87zm-3.5-3.16V34.55L25.89 45.35V84.16zm2.19-64.3L61.76 1V22.76L28.21 41.21l-.27.15zm109.18 0L66.24 1V22.76L99.79 41.2l.27.15 18.54-10.71zM61.76 99.37L30.37 82.1V47.92L61.76 66zm4.48 0L97.63 82.12V47.92L66.24 66zM32.5 44L64 26.66 95.5 44 64 62.16 32.5 44z"></path></symbol><symbol id="tooth" xmlns="http://www.w3.org/2000/svg" viewBox="0 0 24.09 22.68"><title>tooth</title><g data-name=" 2"><g data-name="Layer 1"><path d="M16.59,22.68c-1.5,0-2-1.92-2.62-4-.46-1.64-1-3.51-1.88-3.51H12c-.89,0-1.42,1.86-1.88,3.51-.58,2-1.12,4-2.62,4-2.65,0-4.9-4.85-5.15-5.41-.13-.26-3.48-7-2-13.06C1.74-1.18,7.79-.06,10.7.48a10.24,10.24,0,0,0,1.3.2,9.22,9.22,0,0,0,1.39-.2c2.91-.54,9-1.66,10.3,3.74,1.52,6.09-1.83,12.8-2,13.09C21.49,17.83,19.24,22.68,16.59,22.68ZM12,14.12h.09c1.72,0,2.34,2.19,2.94,4.31.4,1.41.89,3.16,1.56,3.16,1.64,0,3.59-3.52,4.14-4.76,0-.09,3.32-6.66,1.9-12.35-1.1-4.39-6.26-3.43-9-2.92a9.81,9.81,0,0,1-1.5.21,9.35,9.35,0,0,1-1.59-.21C7.73,1,2.56.09,1.46,4.48,0,10.17,3.31,16.74,3.35,16.8,4.18,18.67,6,21.58,7.5,21.58c.67,0,1.16-1.75,1.56-3.16C9.66,16.31,10.28,14.12,12,14.12Z"></path><path d="M6.88,4.51a.55.55,0,0,1-.35-1C9.09,1.4,13.4.48,13.58.44a.55.55,0,1,1,.23,1.08s-4.23.91-6.58,2.87A.55.55,0,0,1,6.88,4.51Z"></path><path d="M17.83,8.24A2.24,2.24,0,0,1,15.59,6a.5.5,0,0,1,1,0,1.24,1.24,0,1,0,1.24-1.24.5.5,0,0,1,0-1,2.24,2.24,0,1,1,0,4.48Z"></path></g></g></symbol><symbol id="wordpress" xmlns="http://www.w3.org/2000/svg" viewBox="0 0 430.117 430.118" xml:space="preserve"><path d="M0,215.059c0,118.786,96.274,215.059,215.059,215.059c118.759,0,215.059-96.272,215.059-215.059
		C430.117,96.303,333.817,0,215.059,0C96.274,0,0,96.303,0,215.059z M16.572,215.059c0-28.775,6.196-56.082,17.191-80.78
		l94.679,259.398C62.242,361.541,16.572,293.616,16.572,215.059z M215.059,413.541c-19.48,0-38.3-2.838-56.077-8.06l59.568-173.032
		l61.008,167.128c0.396,0.989,0.887,1.862,1.4,2.702C260.348,409.564,238.156,413.541,215.059,413.541z M375.466,211.337
		c11.323-28.317,15.112-50.955,15.112-71.084c0-7.309-0.49-14.09-1.372-20.421c15.495,28.287,24.307,60.711,24.307,95.232
		c0,73.235-39.671,137.151-98.662,171.538L375.466,211.337z M332.669,150.299c7.533,13.212,16.377,30.203,16.377,54.742
		c0,17-5.055,38.366-15.107,64.175l-19.807,66.123l-71.733-213.328c11.976-0.651,22.71-1.895,22.71-1.895
		c10.697-1.27,9.418-16.96-1.246-16.372c0,0-32.161,2.539-52.913,2.539c-19.508,0-52.264-2.539-52.264-2.539
		c-10.702-0.588-11.943,15.751-1.272,16.372c0,0,10.146,1.244,20.846,1.895l30.894,84.727L165.73,336.977L93.435,122.011
		c11.974-0.651,22.736-1.895,22.736-1.895c10.704-1.27,9.395-16.96-1.272-16.372c0,0-32.135,2.539-52.913,2.539
		c-3.72,0-8.093-0.098-12.757-0.231c35.5-53.884,96.506-89.475,165.831-89.475c51.674,0,98.723,19.767,134.02,52.131
		c-0.849-0.067-1.698-0.168-2.548-0.168c-19.541,0-33.342,16.972-33.342,35.209C313.193,120.122,322.621,133.959,332.669,150.299z"></path></symbol></svg>