<svg viewBox="0 0 300 300" xmlns="http://www.w3.org/2000/svg"><path d="m225.377 23.463c-9.379-3.283-19.656 1.672-22.938 11.035-1.594 4.539-1.32 9.424.766 13.756 1.18 2.457 2.906 4.516 4.969 6.174l-6.059 17.292c-14.083-8.856-31.491-14.169-50.39-14.169-19.924 0-38.226 5.867-52.681 15.611l-6.971-18.853c5.674-4.749 8.104-12.683 5.396-20.008v-.002c-1.67-4.51-4.994-8.1-9.361-10.107-4.367-2.01-9.256-2.195-13.766-.529-4.51 1.668-8.1 4.992-10.109 9.359-2.01 4.369-2.197 9.258-.529 13.766 1.668 4.51 4.992 8.1 9.359 10.109 2.396 1.104 4.951 1.658 7.514 1.658 1.448 0 2.889-.243 4.316-.599l7.463 20.185c-15.448 12.87-25.041 30.699-25.041 50.386 0 33.816 27.954 95.328 64.935 112.454-.029.194-.115.367-.115.569v32c0 2.209 1.789 4 4 4s4-1.791 4-4v-29.65c3.795 1.05 7.661 1.651 11.59 1.651 4.211 0 8.354-.659 12.41-1.859v29.859c0 2.209 1.789 4 4 4s4-1.791 4-4v-32.99c36.52-17.718 64-78.502 64-112.034 0-20.573-10.527-39.072-27.215-52.048l6.496-18.539c1.331.305 2.666.512 3.992.512 7.434 0 14.41-4.646 17.004-12.049 0-.002 0-.002 0-.002 3.281-9.368-1.672-19.657-11.035-22.938zm-148.971 26.166c-2.426-1.115-4.273-3.111-5.199-5.617-.928-2.504-.824-5.221.293-7.646 1.115-2.426 3.111-4.273 5.617-5.199 1.131-.42 2.303-.627 3.475-.627 1.422 0 2.842.307 4.172.92 2.428 1.115 4.273 3.111 5.201 5.615 1.912 5.172-.74 10.936-5.91 12.85-2.51.925-5.221.823-7.649-.296zm151.728 78.898c0 35.898-35.371 109.023-76.41 109.023-41.041 0-76.41-73.125-76.41-109.023 0-34.725 34.277-62.977 76.41-62.977s76.41 28.253 76.41 62.977zm.731-84.769c-1.832 5.205-7.559 7.955-12.746 6.131-2.523-.883-4.547-2.695-5.707-5.102-1.156-2.408-1.309-5.121-.426-7.641 1.445-4.115 5.32-6.695 9.449-6.695 1.094 0 2.207.18 3.297.562 5.203 1.823 7.953 7.54 6.133 12.745z"/><path d="m129.201 139.078c-9.258-10.238-25.123-11.037-35.363-1.777s-11.039 25.123-1.779 35.363v.002c3.682 4.07 11.869 7.996 25.033 12.004 1.656.504 3.34.752 5.004.752 4.117 0 8.121-1.514 11.293-4.379 4.449-4.023 6.414-9.949 5.25-15.852-2.673-13.501-5.759-22.042-9.438-26.113zm-1.18 36.03c-2.34 2.119-5.547 2.832-8.602 1.91-15.74-4.793-20.229-8.393-21.428-9.717-6.301-6.971-5.756-17.766 1.213-24.066 6.967-6.301 17.77-5.754 24.062 1.209 1.488 1.646 4.441 6.73 7.52 22.297.618 3.119-.417 6.245-2.765 8.367z"/><path d="m181.353 185.422c1.664 0 3.348-.248 5.004-.752 13.164-4.008 21.352-7.934 25.031-12.004 9.262-10.24 8.465-26.104-1.777-35.365-10.234-9.26-26.102-8.465-35.367 1.779-3.676 4.068-6.762 12.609-9.434 26.113-1.164 5.9.801 11.826 5.25 15.85 3.168 2.865 7.172 4.379 11.293 4.379zm-8.691-18.68c3.078-15.568 6.031-20.652 7.516-22.297 3.359-3.715 7.996-5.604 12.648-5.604 4.074 0 8.164 1.449 11.418 4.393 6.969 6.303 7.512 17.098 1.215 24.064-1.492 1.645-6.254 5.096-21.43 9.719-3.059.918-6.258.209-8.605-1.908-2.344-2.121-3.38-5.249-2.762-8.367z"/><path d="m118.436 152.52c-2.978-3.293-8.061-3.549-11.354-.571s-3.549 8.061-.571 11.354c1.435 1.587 5.278 3.055 8.876 4.15 3.578 1.089 7.011-2.016 6.287-5.685-.728-3.69-1.803-7.661-3.238-9.248z"/><path d="m188.305 166.31c3.102-.944 6.415-2.21 7.652-3.577 2.567-2.839 2.346-7.22-.492-9.787s-7.22-2.346-9.787.492c-1.237 1.368-2.163 4.791-2.792 7.972-.625 3.162 2.335 5.839 5.419 4.9z"/><path d="m154.712 218.236c2.543 1.15 5.211 1.695 7.836 1.695 7.266 0 14.223-4.17 17.414-11.207.91-2.012.02-4.383-1.992-5.293-2.016-.92-4.383-.018-5.297 1.992-2.52 5.564-9.098 8.049-14.664 5.523-2.016-.91-4.383-.016-5.293 1.994-.91 2.015-.015 4.384 1.996 5.296z"/><circle cx="174.134" cy="99.551" r="6"/><circle cx="196.134" cy="101.551" r="4"/><circle cx="184.134" cy="85.551" r="4"/></svg>
