<svg viewBox="0 0 35 35" version="1.1" xmlns="http://www.w3.org/2000/svg" >
    <g stroke="none" stroke-width="1" fill-rule="evenodd">
        <g transform="translate(-82.000000, -66.000000)">
            <g transform="translate(82.000000, 66.185000)">
                <g id="Shape-2" transform="translate(0.000000, 1.815000)">
                    <path d="M11.8933314,25.7340298 L11.851693,25.788205 L14.0654102,28.5669574 C12.961313,29.1565571 11.7894137,29.6760278 10.5773382,30.0980685 C15.7362935,28.7609706 20.2241642,28.5514237 23.6661687,30.0980685 C23.2169381,28.6954618 22.4047145,25.1734113 24.6851341,23.0354867 C25.7007822,21.9142428 26.226661,21.3448039 27.02341,20.8160928 C27.6008851,20.4326867 27.8304733,19.460101 27.8304733,19.460101 L24.6549099,20.3801916 L24.8200132,19.4097059 C24.8200132,19.4097059 27.7722485,18.4585411 29.3491598,17.4977158 C30.9256966,16.5373105 30.9234851,15.7243035 30.9234851,15.7243035 L26.331322,16.9778251 L26.6718371,15.7923324 C26.6718371,15.7923324 31.1224865,14.7869923 32.7672061,13.7152964 C33.6483436,13.1408174 35.3446534,11.2477211 34.9050061,11.7545913 C34.4657274,12.2614615 27.0208298,14.2587012 27.0208298,14.2587012 L27.1361798,13.5796587 C27.1361798,13.5796587 31.9597741,12.2287071 33.8771946,11.3430441 C35.7942526,10.457808 37.9453219,8.71841015 39.2804816,7.10037636 C40.6156354,5.48234256 41.1404145,4.99436619 42.2367713,3.22305397 C43.3327596,1.45174175 42.9262792,0 42.9262792,0 C39.6445804,4.27500901 35.9552955,6.89376274 31.2330449,8.72009022 C28.2469056,9.87492861 24.8292219,10.5930326 22.5031095,13.2122064 C21.2807196,14.5879389 21.5895422,16.666228 22.0973663,18.3346569 C22.7419124,20.4520075 21.133677,23.2303399 18.3181639,25.6693611 L16.1803638,22.4332866 C17.8394523,20.7875386 19.3216486,18.8595878 20.7419341,16.7581978 C20.8388608,16.6372538 20.8211685,16.4394605 20.7028759,16.3155763 C20.5842085,16.1925322 20.4095279,16.1908521 20.3122387,16.3117962 C17.8685647,18.9263566 15.6987035,21.2204997 13.1087242,22.9317634 C11.8645876,23.7535839 10.5327451,24.2671744 8.93999044,24.8815481 C7.25400108,25.5320433 5.52968457,25.8625342 3.83263151,26.3538638 C3.11585415,26.5613174 2.3305375,26.7771645 1.65429277,27.1807314 C1.10225021,27.5103891 0.391370264,28.0970418 0.324293236,28.8655409 L0.323924647,28.8663809 L0.324293236,28.8663809 C0.278968959,29.3862647 0.387315793,29.6096721 0.815168262,30.1178024 C2.44145841,30.300482 4.46317734,30.4625739 7.19061597,30.34583 C4.95552067,28.9848049 7.27832186,27.6850815 9.39216974,26.8989486 C10.2722015,26.5722378 11.1032231,26.1812715 11.8933314,25.7340298 Z M0.331665002,31.5485433 C0.123817453,31.5061355 -0.0316965984,31.3419366 0.00552477784,31.1046687 C0.042746154,30.8678208 0.233270052,30.801892 0.441486189,30.8443067 C8.96910288,32.328376 15.6028826,28.030273 23.0636296,30.4999484 C23.9860429,30.8056721 23.6871722,32.1965184 22.5915525,31.8786211 C14.148693,29.4307796 8.56778272,33.2459533 0.331665002,31.5485433 Z M14.5636509,23.8955287 L16.8827663,26.8069857 C16.4873375,27.0938017 16.0753343,27.3734844 15.6496873,27.6430867 L13.6884108,24.5733112 C13.9858072,24.355784 14.2773062,24.1294365 14.5636509,23.8955287 Z M25.7700647,22.9384767 C25.8739885,22.922943 28.3456691,20.5049158 28.3456691,20.5049158 L31.2938499,19.6545342 C31.2938499,19.6545342 31.388565,20.2911688 30.2022847,21.107116 C29.016379,21.9230631 25.7700647,22.9384767 25.7700647,22.9384767 Z M28.6493315,18.9171163 C28.6684981,18.8054126 29.7619002,17.7379238 30.9183248,17.4930956 C32.0386339,17.2558277 35.6118316,15.9120164 35.75998,15.6369539 C35.9084969,15.3614713 34.9879264,17.1987124 33.6446577,17.7484174 C32.3013951,18.2989624 28.5748888,19.5545909 28.5748888,19.5545909 L28.6493315,18.9171163 Z M32.1912053,14.7722917 L31.5429733,16.3995658 C31.5429733,16.3995658 35.3148038,15.0767485 37.0435434,13.6493676 C38.2062341,12.6898024 39.3169658,10.6102464 39.3169658,10.6102464 L35.9855197,12.7229768 L32.1912053,14.7722917 Z M41.8804069,4.67101557 C41.8804069,4.67101557 40.6053209,7.00672648 39.0004029,8.50004297 C37.927261,9.4982428 35.9822024,10.9516646 35.9822024,10.9516646 L35.8635351,11.8490743 C35.8635351,11.8490743 39.4492649,9.5188236 40.2102607,8.53615749 C41.5085677,6.8597483 41.8804069,4.67101557 41.8804069,4.67101557 Z" id="Shape"></path>
                </g>
            </g>
        </g>
    </g>
</svg>
