<svg xmlns="http://www.w3.org/2000/svg" viewBox="0 0 24.09 22.68"><title>tooth</title><g id="Слой_2" data-name="Слой 2"><g id="Layer_1" data-name="Layer 1"><path d="M16.59,22.68c-1.5,0-2-1.92-2.62-4-.46-1.64-1-3.51-1.88-3.51H12c-.89,0-1.42,1.86-1.88,3.51-.58,2-1.12,4-2.62,4-2.65,0-4.9-4.85-5.15-5.41-.13-.26-3.48-7-2-13.06C1.74-1.18,7.79-.06,10.7.48a10.24,10.24,0,0,0,1.3.2,9.22,9.22,0,0,0,1.39-.2c2.91-.54,9-1.66,10.3,3.74,1.52,6.09-1.83,12.8-2,13.09C21.49,17.83,19.24,22.68,16.59,22.68ZM12,14.12h.09c1.72,0,2.34,2.19,2.94,4.31.4,1.41.89,3.16,1.56,3.16,1.64,0,3.59-3.52,4.14-4.76,0-.09,3.32-6.66,1.9-12.35-1.1-4.39-6.26-3.43-9-2.92a9.81,9.81,0,0,1-1.5.21,9.35,9.35,0,0,1-1.59-.21C7.73,1,2.56.09,1.46,4.48,0,10.17,3.31,16.74,3.35,16.8,4.18,18.67,6,21.58,7.5,21.58c.67,0,1.16-1.75,1.56-3.16C9.66,16.31,10.28,14.12,12,14.12Z"/><path d="M6.88,4.51a.55.55,0,0,1-.35-1C9.09,1.4,13.4.48,13.58.44a.55.55,0,1,1,.23,1.08s-4.23.91-6.58,2.87A.55.55,0,0,1,6.88,4.51Z"/><path d="M17.83,8.24A2.24,2.24,0,0,1,15.59,6a.5.5,0,0,1,1,0,1.24,1.24,0,1,0,1.24-1.24.5.5,0,0,1,0-1,2.24,2.24,0,1,1,0,4.48Z"/></g></g></svg>
